<?xml version="1.0" encoding="UTF-8" standalone="no"?>
<!-- Created with Inkscape (http://www.inkscape.org/) -->

<svg
   xmlns:dc="http://purl.org/dc/elements/1.1/"
   xmlns:cc="http://creativecommons.org/ns#"
   xmlns:rdf="http://www.w3.org/1999/02/22-rdf-syntax-ns#"
   xmlns:svg="http://www.w3.org/2000/svg"
   xmlns="http://www.w3.org/2000/svg"
   xmlns:sodipodi="http://sodipodi.sourceforge.net/DTD/sodipodi-0.dtd"
   xmlns:inkscape="http://www.inkscape.org/namespaces/inkscape"
   viewBox="0 0 744.09448 1052.3622"
   inkscape:version="0.91 r12937"
   version="1.1"
   id="svg2"
   height="1000"
   width="1000"
   sodipodi:docname="logofont-glatt.svg">
  <sodipodi:namedview
     id="base"
     pagecolor="#ffffff"
     bordercolor="#666666"
     borderopacity="1.0"
     inkscape:pageopacity="0.0"
     inkscape:pageshadow="2"
     inkscape:zoom="0.78014303"
     inkscape:cx="614.92091"
     inkscape:cy="544.2879"
     inkscape:document-units="px"
     inkscape:current-layer="g4441"
     showgrid="false"
     inkscape:window-width="1600"
     inkscape:window-height="834"
     inkscape:window-x="0"
     inkscape:window-y="27"
     inkscape:window-maximized="1"
     showguides="true"
     inkscape:guide-bbox="true"
     inkscape:snap-global="false">
    <sodipodi:guide
       orientation="0,1"
       position="0,250"
       inkscape:label="baseline"
       id="guide4405" />
    <sodipodi:guide
       orientation="0,1"
       position="0,1000"
       inkscape:label="ascender"
       id="guide4407" />
    <sodipodi:guide
       orientation="0,1"
       position="0,950"
       inkscape:label="caps"
       id="guide4409" />
    <sodipodi:guide
       orientation="0,1"
       position="750.21344,750.62474"
       inkscape:label="xheight"
       id="guide4411" />
    <sodipodi:guide
       orientation="0,1"
       position="0,0"
       inkscape:label="descender"
       id="guide4413" />
    <sodipodi:guide
       inkscape:label=""
       id="guide4082"
       position="244.82304,700"
       orientation="0,1" />
    <sodipodi:guide
       inkscape:label=""
       id="guide4084"
       position="650,901.31167"
       orientation="1,0" />
    <sodipodi:guide
       inkscape:label=""
       id="guide4086"
       position="300,760"
       orientation="1,0" />
    <sodipodi:guide
       inkscape:label=""
       id="guide4090"
       position="350,786.32257"
       orientation="1,0" />
    <sodipodi:guide
       inkscape:label=""
       id="guide4092"
       position="600,852.2722"
       orientation="1,0" />
    <sodipodi:guide
       inkscape:label=""
       id="guide4096"
       position="745.14931,350.80348"
       orientation="0,1" />
    <sodipodi:guide
       inkscape:label=""
       id="guide4098"
       position="763.87336,650"
       orientation="0,1" />
    <sodipodi:guide
       inkscape:label=""
       id="guide4102"
       position="400.91826,401.99832"
       orientation="0,1" />
    <sodipodi:guide
       inkscape:label=""
       id="guide4104"
       position="400,888.921"
       orientation="1,0" />
    <sodipodi:guide
       inkscape:label=""
       id="guide4106"
       position="450,700"
       orientation="1,0" />
    <sodipodi:guide
       inkscape:label=""
       id="guide4108"
       position="550,400"
       orientation="1,0" />
    <sodipodi:guide
       inkscape:label=""
       id="guide4110"
       position="497.86161,700"
       orientation="1,0" />
    <sodipodi:guide
       inkscape:label=""
       id="guide4114"
       position="766.64162,550.4607"
       orientation="0,1" />
    <sodipodi:guide
       inkscape:label=""
       id="guide4116"
       position="743.23238,498.50952"
       orientation="0,1" />
    <sodipodi:guide
       inkscape:label=""
       id="guide4118"
       position="835.37198,150"
       orientation="0,1" />
    <sodipodi:guide
       inkscape:label=""
       id="guide4727"
       position="-376.31495,450"
       orientation="0,1" />
    <inkscape:grid
       id="grid4180"
       type="xygrid" />
    <sodipodi:guide
       inkscape:label=""
       id="guide4182"
       position="700,669.56636"
       orientation="1,0" />
    <sodipodi:guide
       orientation="0,1"
       position="787.25303,200.33261"
       id="guide7628"
       inkscape:label="" />
    <sodipodi:guide
       orientation="0,1"
       position="865.58015,100"
       id="guide7630"
       inkscape:label="" />
    <sodipodi:guide
       orientation="0,1"
       position="927.15834,50"
       id="guide7632"
       inkscape:label="" />
    <sodipodi:guide
       orientation="0,1"
       position="-50.536931,300"
       id="guide8776"
       inkscape:label="" />
    <sodipodi:guide
       orientation="0,1"
       position="435.9793,900"
       id="guide18285"
       inkscape:label="" />
    <sodipodi:guide
       orientation="0,1"
       position="790.36419,850"
       id="guide18287"
       inkscape:label="" />
    <sodipodi:guide
       orientation="0,1"
       position="839.0545,800"
       id="guide18289"
       inkscape:label="" />
  </sodipodi:namedview>
  <defs
     id="defs4" />
  <metadata
     id="metadata7">
    <rdf:RDF>
      <cc:Work
         rdf:about="">
        <dc:format>image/svg+xml</dc:format>
        <dc:type
           rdf:resource="http://purl.org/dc/dcmitype/StillImage" />
        <dc:title></dc:title>
      </cc:Work>
    </rdf:RDF>
  </metadata>
  <g
     inkscape:label="Layer 1"
     inkscape:groupmode="layer"
     id="layer1"
     style="display:none"
     sodipodi:insensitive="true" />
  <g
     id="g4441"
     style="display:inline"
     inkscape:groupmode="layer"
     inkscape:label="GlyphLayer-ß">
    <path
       id="path4445"
       style="fill:none;stroke:#000000;stroke-width:105.23622131;stroke-linecap:butt;stroke-linejoin:miter;stroke-miterlimit:4;stroke-opacity:1;stroke-dasharray:none;display:inline"
       d="m 187.88385,789.27165 0,-526.1811 c 0,-106.16932 53.5834,-157.85433 157.85434,-157.85433 l 52.61811,0 c 104.12561,0 157.99965,-0.0858 157.85433,105.23622 -0.14334,103.88925 -45.8904,105.23622 -157.85433,105.23622 l -78.92717,0 131.54528,0 c 44.56031,0 105.23622,54.25944 105.23622,157.85433 l 0,105.23622 c 0,105.56073 -52.16377,157.85433 -157.85433,157.85433 l -105.23622,0"
       inkscape:connector-curvature="0"
       sodipodi:nodetypes="cssssscssssc" />
  </g>
  <g
     id="g4429"
     style="display:none"
     inkscape:groupmode="layer"
     inkscape:label="GlyphLayer-ü">
    <path
       id="path4349-1-1-1"
       style="fill:none;stroke:#000000;stroke-width:105.23622131;stroke-linecap:butt;stroke-linejoin:miter;stroke-miterlimit:4;stroke-opacity:1;stroke-dasharray:none;display:inline"
       d="m 450.97441,52.61811 0,105.23622 M 293.12008,52.61811 l 0,105.23622 m 263.09055,105.23622 0,315.70866 c 0,105.23622 -51.75354,157.85433 -157.85434,157.85433 l -52.61811,0 c -105.23622,0 -157.85433,-52.61811 -157.85433,-157.85433 l 0,-315.70866"
       inkscape:connector-curvature="0" />
  </g>
  <g
     id="g4417"
     style="display:none"
     inkscape:groupmode="layer"
     inkscape:label="GlyphLayer-ö">
    <path
       id="path4349-1-1-6"
       style="fill:none;stroke:#000000;stroke-width:105.23622131;stroke-linecap:butt;stroke-linejoin:miter;stroke-miterlimit:4;stroke-opacity:1;stroke-dasharray:none;display:inline"
       d="m 450.97441,52.61811 0,105.23622 M 293.12008,52.61811 l 0,105.23622 M 187.88385,578.79921 c 0,105.23622 52.61812,157.85433 157.85433,157.85433 l 52.61812,0 c 105.23622,0 157.85432,-52.61811 157.85432,-157.85433 l 0,-105.23622 c 0,-105.23622 -52.61811,-157.85433 -157.85433,-157.85433 l -52.61811,0 c -105.23622,0 -157.85433,52.61811 -157.85433,157.85433 z"
       inkscape:connector-curvature="0" />
  </g>
  <g
     inkscape:label="GlyphLayer-ä"
     inkscape:groupmode="layer"
     style="display:none"
     id="g4382">
    <path
       id="path4349-1-1"
       style="fill:none;stroke:#000000;stroke-width:105.23622131;stroke-linecap:butt;stroke-linejoin:miter;stroke-miterlimit:4;stroke-opacity:1;stroke-dasharray:none;display:inline"
       d="m 450.97441,52.61811 0,105.23622 M 293.12008,52.61811 l 0,105.23622 m 263.09055,631.41732 0,-315.70866 c 0,-105.23622 -53.48269,-157.85433 -157.85433,-157.85433 l -52.61811,0 c -105.23622,0 -157.85434,55.61537 -157.85434,157.85433 l 0,105.23622 c 1e-5,104.39067 52.61812,157.85433 157.85434,157.85433 l 105.23622,0"
       inkscape:connector-curvature="0" />
  </g>
  <g
     id="g4527"
     style="display:none"
     inkscape:groupmode="layer"
     inkscape:label="GlyphLayer-/">
    <path
       sodipodi:nodetypes="csc"
       inkscape:connector-curvature="0"
       d="m 240.50197,789.27165 c 0,-53.47369 103.59895,-223.34166 131.54527,-263.09055 25.36273,-36.07416 131.54528,-212.31472 131.54528,-263.09055"
       style="opacity:0.97000002;fill:none;stroke:#000000;stroke-width:105.23622131;stroke-linecap:butt;stroke-linejoin:miter;stroke-miterlimit:4;stroke-opacity:1;stroke-dasharray:none;display:inline"
       id="path4531" />
  </g>
  <g
     inkscape:label="GlyphLayer-\"
     inkscape:groupmode="layer"
     style="display:none"
     id="g4539">
    <path
       id="path4541"
       style="opacity:0.97000002;fill:none;stroke:#000000;stroke-width:105.23622131;stroke-linecap:butt;stroke-linejoin:miter;stroke-miterlimit:4;stroke-opacity:1;stroke-dasharray:none;display:inline"
       d="m 503.59252,789.27165 c 0,-53.47369 -103.59895,-223.34166 -131.54527,-263.09055 C 346.68452,490.10694 240.50197,313.86638 240.50197,263.09055"
       inkscape:connector-curvature="0"
       sodipodi:nodetypes="csc" />
  </g>
  <g
     inkscape:label="GlyphLayer-_"
     inkscape:groupmode="layer"
     style="display:none"
     id="g4519">
    <path
       inkscape:connector-curvature="0"
       d="m 608.82874,736.65354 -473.563,0"
       style="fill:none;stroke:#000000;stroke-width:105.23622131;stroke-linecap:butt;stroke-linejoin:miter;stroke-miterlimit:4;stroke-opacity:1;stroke-dasharray:none;display:inline"
       id="path4521"
       sodipodi:nodetypes="cc" />
  </g>
  <g
     id="g4523"
     style="display:none"
     inkscape:groupmode="layer"
     inkscape:label="GlyphLayer-|">
    <path
       sodipodi:nodetypes="cc"
       id="path4525"
       style="fill:none;stroke:#000000;stroke-width:105.23622131;stroke-linecap:butt;stroke-linejoin:miter;stroke-miterlimit:4;stroke-opacity:1;stroke-dasharray:none;display:inline"
       d="m 372.04724,789.27165 0,-736.65354"
       inkscape:connector-curvature="0" />
  </g>
  <g
     inkscape:label="GlyphLayer-="
     inkscape:groupmode="layer"
     style="display:none"
     id="g4500">
    <path
       id="path4502-7"
       style="fill:none;stroke:#000000;stroke-width:105.23622131;stroke-linecap:butt;stroke-linejoin:miter;stroke-miterlimit:4;stroke-opacity:1;stroke-dasharray:none;display:inline"
       d="m 529.90157,420.94488 -315.70866,0 m 315.70866,210.47244 -315.70866,0"
       inkscape:connector-curvature="0" />
  </g>
  <g
     inkscape:label="GlyphLayer-+"
     inkscape:groupmode="layer"
     style="display:none"
     id="g4481">
    <path
       id="path4483-6"
       style="fill:none;stroke:#000000;stroke-width:105.23622131;stroke-linecap:butt;stroke-linejoin:miter;stroke-miterlimit:4;stroke-opacity:1;stroke-dasharray:none;display:inline"
       d="m 372.04724,684.03543 0,-315.70866 m 157.85433,157.85433 -315.70866,0"
       inkscape:connector-curvature="0" />
  </g>
  <g
     id="g4477"
     style="display:none"
     inkscape:groupmode="layer"
     inkscape:label="GlyphLayer--">
    <path
       sodipodi:nodetypes="cc"
       id="path4479"
       style="fill:none;stroke:#000000;stroke-width:105.23622131;stroke-linecap:butt;stroke-linejoin:miter;stroke-miterlimit:4;stroke-opacity:1;stroke-dasharray:none;display:inline"
       d="m 529.90157,526.1811 -315.70866,0"
       inkscape:connector-curvature="0" />
  </g>
  <g
     id="g4359"
     style="display:none"
     inkscape:groupmode="layer"
     inkscape:label="GlyphLayer-?">
    <g
       id="g4378"
       transform="translate(-25.476588,0)">
      <path
         id="path4349-1"
         style="fill:none;stroke:#000000;stroke-width:105.23622131;stroke-linecap:butt;stroke-linejoin:miter;stroke-miterlimit:4;stroke-opacity:1;stroke-dasharray:none;display:inline"
         d="m 371.21477,684.03543 0,105.23622 m -184.16338,-684.03543 210.47244,0 c 106.1008,0 157.85433,0 157.85433,105.23622 0,105.71097 -50.70249,106.1977 -157.85433,105.23622 0,0 -6.4861,-0.22244 -26.30906,0 -0.38292,88.81675 0,263.09055 0,263.09055"
         inkscape:connector-curvature="0" />
    </g>
  </g>
  <g
     inkscape:label="GlyphLayer-!"
     inkscape:groupmode="layer"
     style="display:none"
     id="g4355">
    <path
       inkscape:connector-curvature="0"
       d="m 372.04724,789.27165 0,-105.23622 m 0,-105.23622 0,-526.1811"
       style="fill:none;stroke:#000000;stroke-width:105.23622131;stroke-linecap:butt;stroke-linejoin:miter;stroke-miterlimit:4;stroke-opacity:1;stroke-dasharray:none;display:inline"
       id="path4357" />
  </g>
  <g
     inkscape:label="GlyphLayer-;"
     inkscape:groupmode="layer"
     style="display:none"
     id="g4467">
    <path
       id="path4450-3"
       style="fill:none;stroke:#000000;stroke-width:105.23622131;stroke-linecap:butt;stroke-linejoin:miter;stroke-miterlimit:4;stroke-opacity:1;stroke-dasharray:none;display:inline"
       d="m 372.04724,263.09055 0,105.23622 m 0,315.70866 c 0,0 0,30.44907 0,52.61811 0,103.6683 -51.61031,105.23622 -105.23622,105.23622"
       inkscape:connector-curvature="0" />
  </g>
  <g
     id="g4448"
     style="display:none"
     inkscape:groupmode="layer"
     inkscape:label="GlyphLayer-:">
    <path
       id="path4450-7"
       style="fill:none;stroke:#000000;stroke-width:105.23622131;stroke-linecap:butt;stroke-linejoin:miter;stroke-miterlimit:4;stroke-opacity:1;stroke-dasharray:none;display:inline"
       d="m 372.04724,263.09055 0,105.23622 m 0,315.70866 0,105.23622"
       inkscape:connector-curvature="0" />
  </g>
  <g
     id="g4351"
     style="display:none"
     inkscape:groupmode="layer"
     inkscape:label="GlyphLayer-,">
    <path
       sodipodi:nodetypes="csc"
       id="path4353"
       style="fill:none;stroke:#000000;stroke-width:105.23622131;stroke-linecap:butt;stroke-linejoin:miter;stroke-miterlimit:4;stroke-opacity:1;stroke-dasharray:none;display:inline"
       d="m 372.04724,684.03543 c 0,0 0,30.44907 0,52.61811 0,103.6683 -51.61031,105.23622 -105.23622,105.23622"
       inkscape:connector-curvature="0" />
  </g>
  <g
     inkscape:label="GlyphLayer-."
     inkscape:groupmode="layer"
     style="display:none"
     id="g4347">
    <path
       inkscape:connector-curvature="0"
       d="m 372.04724,684.03543 0,105.23622"
       style="fill:none;stroke:#000000;stroke-width:105.23622131;stroke-linecap:butt;stroke-linejoin:miter;stroke-miterlimit:4;stroke-opacity:1;stroke-dasharray:none;display:inline"
       id="path4349"
       sodipodi:nodetypes="cc" />
  </g>
  <g
     inkscape:label="GlyphLayer-9"
     inkscape:groupmode="layer"
     style="display:none"
     id="g8826">
    <path
       style="fill:none;stroke:#000000;stroke-width:105.23622131;stroke-linecap:butt;stroke-linejoin:miter;stroke-miterlimit:4;stroke-opacity:1;stroke-dasharray:none"
       d="m 450.9744,526.1811 -105.23622,0 c -105.36546,0 -157.85433,0 -157.85433,-105.23622 0,-105.23622 55.41172,-105.23622 157.85433,-105.23622 l 52.61811,0 c 102.96676,0 157.85434,55.61537 157.85434,157.85433 l 0,105.23622 c 0,104.39067 -55.45242,157.85433 -157.85434,157.85433 l -236.78149,0"
       id="path8828"
       inkscape:connector-curvature="0"
       sodipodi:nodetypes="csssssssc" />
  </g>
  <g
     inkscape:label="GlyphLayer-8"
     inkscape:groupmode="layer"
     style="display:none"
     id="g8802">
    <path
       style="fill:none;stroke:#000000;stroke-width:105.23622131;stroke-linecap:butt;stroke-linejoin:miter;stroke-miterlimit:4;stroke-opacity:1;stroke-dasharray:none"
       d="m 345.73819,526.1811 c -102.23758,-0.69951 -157.24945,0.17349 -157.85434,105.23622 -0.30295,52.61811 12.74193,79.48851 39.06283,92.45592 13.16045,6.4837 20.06397,12.9375 39.86434,12.7803 m 52.61811,0 c 24.18819,0.0652 32.478,0 78.92717,0 101.58634,0 158.71865,0 157.85433,-105.23622 C 555.3463,526.1811 503.8367,526.20973 398.4833,526.19065 l -52.74511,-0.01 c -102.53674,-0.0186 -152.71591,4.5e-4 -155.07717,-104.10613 -2.41195,-106.34063 57.18335,-105.90302 155.07717,-106.36631 26.78186,-0.12675 78.92716,0 78.92716,0 m 52.61811,0 c 13.32269,0.005 28.59147,7.6133 39.78779,13.15459 26.20099,13.15452 39.13937,39.46358 39.13937,92.08169 0,104.89287 -52.99336,105.23622 -157.85432,105.23622"
       id="path8804"
       inkscape:connector-curvature="0"
       sodipodi:nodetypes="csscccsssssccccc" />
    <rect
       style="fill:#ffffff;fill-opacity:1;stroke:none;display:inline"
       id="rect8839-8"
       width="36.839005"
       height="192.21983"
       x="423.73334"
       y="208.9252" />
  </g>
  <g
     id="g8798"
     style="display:none"
     inkscape:groupmode="layer"
     inkscape:label="GlyphLayer-7">
    <path
       sodipodi:nodetypes="cssscc"
       inkscape:connector-curvature="0"
       id="path8800"
       d="m 161.5748,315.70866 210.47244,0 c 106.1008,0 157.90422,-1.33705 157.85433,52.61811 -0.0486,52.61811 -52.9657,56.02886 -105.23622,105.23622 -56.97486,53.636 -151.98353,160.90159 -157.85433,289.3996 l 0,26.30906"
       style="fill:none;stroke:#000000;stroke-width:105.23622131;stroke-linecap:butt;stroke-linejoin:miter;stroke-miterlimit:4;stroke-opacity:1;stroke-dasharray:none" />
  </g>
  <g
     id="g8794"
     style="display:none"
     inkscape:groupmode="layer"
     inkscape:label="GlyphLayer-6">
    <path
       sodipodi:nodetypes="csssssssc"
       inkscape:connector-curvature="0"
       id="path8796"
       d="m 293.12008,526.1811 105.23622,0 c 105.36546,0 157.85433,0 157.85433,105.23622 0,105.23622 -55.41172,105.23622 -157.85433,105.23622 l -52.61811,0 c -102.96676,0 -157.85434,-55.61537 -157.85434,-157.85433 l 0,-105.23622 c 0,-104.39067 55.45242,-157.85433 157.85434,-157.85433 l 236.78149,0"
       style="fill:none;stroke:#000000;stroke-width:105.23622131;stroke-linecap:butt;stroke-linejoin:miter;stroke-miterlimit:4;stroke-opacity:1;stroke-dasharray:none" />
  </g>
  <g
     inkscape:label="GlyphLayer-5"
     inkscape:groupmode="layer"
     style="display:none"
     id="g8786">
    <path
       style="fill:none;stroke:#000000;stroke-width:105.23622131;stroke-linecap:butt;stroke-linejoin:miter;stroke-miterlimit:4;stroke-opacity:1;stroke-dasharray:none"
       d="m 582.51968,315.70866 -447.25394,0 m 52.61811,-52.61811 0,184.16338 c 0,104.89287 53.09206,78.49557 184.16339,78.92717 131.16246,0 184.16338,-0.34335 184.16338,105.23622 0,105.28065 -49.70625,105.23622 -157.85432,105.23622 l -236.7815,0"
       id="path8788"
       inkscape:connector-curvature="0"
       sodipodi:nodetypes="cccscssc" />
  </g>
  <g
     inkscape:label="GlyphLayer-4"
     inkscape:groupmode="layer"
     style="display:none"
     id="g8782">
    <path
       style="fill:none;stroke:#000000;stroke-width:105.23622131;stroke-linecap:butt;stroke-linejoin:miter;stroke-miterlimit:4;stroke-opacity:1;stroke-dasharray:none"
       d="m 529.90157,789.27165 0,-526.1811 m -315.70867,0 0,105.23622 c 0,106.13086 53.48271,157.85433 157.85433,157.85433 l 105.23622,0"
       id="path8784"
       inkscape:connector-curvature="0"
       sodipodi:nodetypes="cccssc" />
  </g>
  <g
     id="g8757"
     style="display:none"
     inkscape:groupmode="layer"
     inkscape:label="GlyphLayer-3">
    <path
       id="path8759-7"
       style="fill:none;stroke:#000000;stroke-width:105.23622131;stroke-linecap:butt;stroke-linejoin:miter;stroke-miterlimit:4;stroke-opacity:1;stroke-dasharray:none;display:inline"
       d="m 372.04724,526.1811 c 131.16247,0 184.16338,-0.34335 184.16338,105.23622 0,105.28065 -49.70625,105.23622 -157.85431,105.23622 l -236.78151,0 m -1e-5,-420.94488 236.78149,0 c 106.1008,0 157.85434,0 157.85434,105.23622 0,104.89287 -53.09206,104.80462 -184.16339,105.23622 m 0,0 -210.47243,0"
       inkscape:connector-curvature="0"
       sodipodi:nodetypes="cssccssccc" />
  </g>
  <g
     inkscape:label="GlyphLayer-2"
     inkscape:groupmode="layer"
     style="display:none"
     id="g8753">
    <path
       style="fill:none;stroke:#000000;stroke-width:105.23622131;stroke-linecap:butt;stroke-linejoin:miter;stroke-miterlimit:4;stroke-opacity:1;stroke-dasharray:none"
       d="m 161.57479,315.70866 236.78149,0 c 106.1008,0 157.85434,0 157.85434,105.23622 0,104.89287 -53.09206,104.80462 -184.16339,105.23622 -131.16246,0 -184.16338,-0.34335 -184.16338,105.23622 0,105.28065 49.70625,105.23622 157.85432,105.23622 l 236.78151,0"
       id="path8755"
       inkscape:connector-curvature="0"
       sodipodi:nodetypes="cssccsc" />
  </g>
  <g
     inkscape:label="GlyphLayer-1"
     inkscape:groupmode="layer"
     style="display:none"
     id="g8856">
    <path
       sodipodi:nodetypes="cssc"
       style="fill:none;stroke:#000000;stroke-width:105.23622131;stroke-linecap:butt;stroke-linejoin:miter;stroke-miterlimit:4;stroke-opacity:1;stroke-dasharray:none"
       d="m 477.28346,789.27165 0,-315.70866 c 0,-105.23622 -52.61811,-157.85433 -157.85433,-157.85433 l -52.61811,0"
       id="path8858"
       inkscape:connector-curvature="0" />
  </g>
  <g
     inkscape:label="GlyphLayer-z"
     inkscape:groupmode="layer"
     style="display:none"
     id="g8741">
    <path
       style="fill:none;stroke:#000000;stroke-width:105.23622131;stroke-linecap:butt;stroke-linejoin:miter;stroke-miterlimit:4;stroke-opacity:1;stroke-dasharray:none"
       d="m 161.57479,315.70866 236.78149,0 c 106.1008,0 157.5095,-1.33597 157.85435,52.61811 0.32777,51.28114 -78.92831,104.74914 -184.1634,157.85433 -104.26987,52.61811 -183.0238,105.43361 -184.16338,157.85433 -1.13958,52.8155 49.70625,52.61811 157.85432,52.61811 l 236.78151,0"
       id="path8743"
       inkscape:connector-curvature="0"
       sodipodi:nodetypes="cssscsc" />
  </g>
  <g
     id="g8733"
     style="display:none"
     inkscape:groupmode="layer"
     inkscape:label="GlyphLayer-y">
    <path
       inkscape:connector-curvature="0"
       id="path8735"
       d="m 503.59252,736.65354 -105.23622,0 c -105.23622,0 -157.85433,-53.46366 -157.85433,-157.85433 l 0,-105.23622 c 0,-143.86854 0,-210.47244 0,-210.47244 m 315.70866,0 c 0,0 0,105.23622 0,210.47244 0,105.23622 -1.18342,263.09055 0,368.32677 1.18342,105.23622 -51.43193,105.23622 -157.85433,105.23622 l -184.16339,0"
       style="fill:none;stroke:#000000;stroke-width:105.23622131;stroke-linecap:butt;stroke-linejoin:miter;stroke-miterlimit:4;stroke-opacity:1;stroke-dasharray:none"
       sodipodi:nodetypes="csssccsssc" />
  </g>
  <g
     inkscape:label="alternative-x-5"
     inkscape:groupmode="layer"
     style="display:none"
     id="g4327"
     sodipodi:insensitive="true">
    <path
       sodipodi:nodetypes="cssssc"
       inkscape:connector-curvature="0"
       id="path4329"
       d="m 614.39349,736.65654 -129.31458,0 c -105.23622,0 -113.97764,-47.93818 -113.97764,-154.03898 l 0,-109.84857 c 0,-105.23622 8.74142,-161.66969 113.97764,-161.66969 l 129.31458,0"
       style="fill:none;stroke:#000000;stroke-width:105.23622131;stroke-linecap:butt;stroke-linejoin:miter;stroke-miterlimit:4;stroke-opacity:1;stroke-dasharray:none;display:inline" />
    <path
       sodipodi:nodetypes="cssssc"
       inkscape:connector-curvature="0"
       id="path4331"
       d="m 129.5686,730.91562 121.68385,0 c 105.23622,0 119.70069,-49.84586 119.70069,-155.94666 l 0,-100.31016 c 0,-105.23622 -14.46447,-159.76201 -119.70069,-159.76201 l -121.68385,0"
       style="fill:none;stroke:#000000;stroke-width:105.23622131;stroke-linecap:butt;stroke-linejoin:miter;stroke-miterlimit:4;stroke-opacity:1;stroke-dasharray:none;display:inline" />
    <path
       style="fill:none;stroke:#000000;stroke-width:105.23622131;stroke-linecap:butt;stroke-linejoin:miter;stroke-miterlimit:4;stroke-opacity:1;stroke-dasharray:none"
       d="m 214.04878,529.6573 314.76755,0"
       id="path4333"
       inkscape:connector-curvature="0"
       sodipodi:nodetypes="cc" />
  </g>
  <g
     id="g8633"
     style="display:none"
     inkscape:groupmode="layer"
     inkscape:label="alternative-x-3"
     sodipodi:insensitive="true">
    <path
       style="fill:none;stroke:#000000;stroke-width:105.23622131;stroke-linecap:butt;stroke-linejoin:miter;stroke-miterlimit:4;stroke-opacity:1;stroke-dasharray:none;display:inline"
       d="m 551.95759,263.92485 0,102.60703 c 0,105.23622 -51.75354,157.85433 -157.85434,157.85433 l -52.61811,0 c -105.23622,0 -157.85433,-52.61811 -157.85433,-157.85433 l 0,-102.60703"
       id="path4156-2"
       inkscape:connector-curvature="0"
       sodipodi:nodetypes="cssssc" />
    <path
       style="fill:none;stroke:#000000;stroke-width:105.23622131;stroke-linecap:butt;stroke-linejoin:miter;stroke-miterlimit:4;stroke-opacity:1;stroke-dasharray:none;display:inline"
       d="m 556.51591,789.53615 0,-102.60703 c 0,-105.23622 -51.75354,-157.85433 -157.85434,-157.85433 l -52.61811,0 c -105.23622,0 -157.85433,52.61811 -157.85433,157.85433 l 0,102.60703"
       id="path4156-2-0"
       inkscape:connector-curvature="0"
       sodipodi:nodetypes="cssssc" />
  </g>
  <g
     id="g8602"
     style="opacity:0.97000002;display:none"
     inkscape:groupmode="layer"
     inkscape:label="alternative-x-2"
     sodipodi:insensitive="true">
    <path
       sodipodi:nodetypes="csssc"
       inkscape:connector-curvature="0"
       id="path8604"
       d="m 555.30116,789.27165 c 0,0 0.46201,-52.61612 0,-84.14711 -1.08,-73.70722 -155.5092,-126.32533 -157.05069,-180.26567 -1.49215,-52.21414 161.36039,-103.91399 159.89632,-158.67759 -1.34896,-50.45803 0,-101.92636 0,-101.92636"
       style="fill:none;stroke:#000000;stroke-width:105.23622131;stroke-linecap:butt;stroke-linejoin:miter;stroke-miterlimit:4;stroke-opacity:1;stroke-dasharray:none" />
    <path
       sodipodi:nodetypes="csssc"
       inkscape:connector-curvature="0"
       id="path8604-6"
       d="m 186.9886,789.9821 c 0,0 -0.46201,-52.61616 0,-84.14714 1.08001,-73.70723 155.5092,-126.32534 157.05069,-180.26568 1.49215,-52.21414 -161.36038,-103.91399 -159.89632,-158.67759 1.34896,-50.45802 0,-101.92635 0,-101.92635"
       style="opacity:0.97000002;fill:none;stroke:#000000;stroke-width:105.23622131;stroke-linecap:butt;stroke-linejoin:miter;stroke-miterlimit:4;stroke-opacity:1;stroke-dasharray:none;display:inline" />
  </g>
  <g
     inkscape:label="alternative-x-1"
     inkscape:groupmode="layer"
     style="display:none"
     id="g8692"
     sodipodi:insensitive="true">
    <path
       style="fill:none;stroke:#000000;stroke-width:105.23622131;stroke-linecap:butt;stroke-linejoin:miter;stroke-miterlimit:4;stroke-opacity:1;stroke-dasharray:none;display:inline"
       d="m 534.56365,268.57254 0,102.60703 c 0,105.23622 -59.84109,198.48416 -157.85434,157.85433 l -15.55106,-6.44644 C 263.94368,482.28872 203.30392,469.96935 203.30392,364.73313 l 0,-102.60703"
       id="path4156-2-1"
       inkscape:connector-curvature="0"
       sodipodi:nodetypes="cssssc" />
    <path
       style="fill:none;stroke:#000000;stroke-width:105.23622131;stroke-linecap:butt;stroke-linejoin:miter;stroke-miterlimit:4;stroke-opacity:1;stroke-dasharray:none;display:inline"
       d="m 539.12197,794.18384 0,-102.60703 c 0,-105.23622 -59.84109,-117.22451 -157.85434,-157.85433 l -15.55106,-6.44644 C 268.502,486.9773 207.86224,579.89415 207.86224,685.13037 l 0,102.60703"
       id="path4156-2-0-5"
       inkscape:connector-curvature="0"
       sodipodi:nodetypes="cssssc" />
  </g>
  <g
     inkscape:label="GlyphLayer-x"
     inkscape:groupmode="layer"
     style="display:none"
     id="g4274">
    <path
       id="path8755-7-6-4-1"
       style="opacity:0.97000002;fill:none;stroke:#000000;stroke-width:105.23622131;stroke-linecap:butt;stroke-linejoin:miter;stroke-miterlimit:4;stroke-opacity:1;stroke-dasharray:none;display:inline"
       d="m 187.88385,789.27165 c 0,-74.11276 368.32678,-451.12444 368.32678,-526.1811 m 0,526.1811 c 0,-75.05666 -151.00212,-229.58026 -184.16339,-263.09055 C 338.88597,492.67082 187.88385,338.14721 187.88385,263.09055"
       inkscape:connector-curvature="0"
       sodipodi:nodetypes="cccsc" />
  </g>
  <g
     id="g8594"
     style="display:none"
     inkscape:groupmode="layer"
     inkscape:label="GlyphLayer-w">
    <g
       transform="matrix(1,0,0,-1,-52.618105,1052.3622)"
       id="g8596">
      <path
         id="path8600"
         style="fill:none;stroke:#000000;stroke-width:105.23622131;stroke-linecap:butt;stroke-linejoin:miter;stroke-miterlimit:4;stroke-opacity:1;stroke-dasharray:none;display:inline"
         d="m 635.13779,789.27165 0,-368.32677 c 0,-79.85443 -27.69189,-105.23622 -105.23622,-105.23622 -78.01015,0 -105.23622,29.82361 -105.23622,105.23622 l 0,368.32677 m 0,0 0,-368.32677 c 0,-79.85443 -27.69189,-105.23622 -105.23622,-105.23622 -78.01015,0 -105.23622,29.82361 -105.23622,105.23622 l -1e-5,368.32677"
         inkscape:connector-curvature="0" />
    </g>
  </g>
  <g
     id="g8547"
     style="display:none"
     inkscape:groupmode="layer"
     inkscape:label="GlyphLayer-v">
    <path
       sodipodi:nodetypes="ccc"
       inkscape:connector-curvature="0"
       id="path8549"
       d="m 556.21063,263.09055 c 0,54.1515 -68.24713,458.88477 -184.16339,473.56299 C 266.06408,734.39255 187.88385,316.05546 187.88385,263.09055"
       style="fill:none;stroke:#000000;stroke-width:105.23622131;stroke-linecap:butt;stroke-linejoin:miter;stroke-miterlimit:4;stroke-opacity:1;stroke-dasharray:none" />
  </g>
  <g
     inkscape:label="GlyphLayer-u"
     inkscape:groupmode="layer"
     style="display:none"
     id="g4154">
    <path
       style="fill:none;stroke:#000000;stroke-width:105.23622131;stroke-linecap:butt;stroke-linejoin:miter;stroke-miterlimit:4;stroke-opacity:1;stroke-dasharray:none"
       d="m 556.21063,263.09055 0,315.70866 c 0,105.23622 -51.75354,157.85433 -157.85434,157.85433 l -52.61811,0 c -105.23622,0 -157.85433,-52.61811 -157.85433,-157.85433 l 0,-315.70866"
       id="path4156"
       inkscape:connector-curvature="0"
       sodipodi:nodetypes="cssssc" />
  </g>
  <g
     id="g8541"
     style="display:none"
     inkscape:groupmode="layer"
     inkscape:label="GlyphLayer-t">
    <path
       id="path8545"
       style="fill:none;stroke:#000000;stroke-width:105.23622131;stroke-linecap:butt;stroke-linejoin:miter;stroke-miterlimit:4;stroke-opacity:1;stroke-dasharray:none"
       d="m 319.42913,315.70866 105.23622,0 M 266.81102,52.618109 l 0,526.181101 c 0,105.23622 52.61811,157.85433 157.85433,157.85433 l 105.23622,0"
       inkscape:connector-curvature="0"
       sodipodi:nodetypes="cccssc" />
  </g>
  <g
     id="g7268"
     style="display:none"
     inkscape:groupmode="layer"
     inkscape:label="GlyphLayer-s">
    <path
       sodipodi:nodetypes="cssccsc"
       inkscape:connector-curvature="0"
       id="path4723"
       d="m 582.51968,315.70866 -236.78149,0 c -106.1008,0 -157.85434,0 -157.85434,105.23622 0,104.89287 53.09206,104.80462 184.16339,105.23622 131.16246,0 184.16338,-0.34335 184.16338,105.23622 0,105.28065 -49.70625,105.23622 -157.85432,105.23622 l -236.7815,0"
       style="fill:none;stroke:#000000;stroke-width:105.23622131;stroke-linecap:butt;stroke-linejoin:miter;stroke-miterlimit:4;stroke-opacity:1;stroke-dasharray:none" />
  </g>
  <g
     id="g4206"
     style="display:none"
     inkscape:groupmode="layer"
     inkscape:label="GlyphLayer-r">
    <path
       inkscape:connector-curvature="0"
       id="path4168"
       d="m 266.81102,789.27165 0,-315.70866 c 0,-105.23622 52.61811,-157.85433 157.85433,-157.85433 l 105.23622,0"
       style="fill:none;stroke:#000000;stroke-width:105.23622131;stroke-linecap:butt;stroke-linejoin:miter;stroke-miterlimit:4;stroke-opacity:1;stroke-dasharray:none"
       sodipodi:nodetypes="cssc" />
  </g>
  <g
     inkscape:label="GlyphLayer-q"
     inkscape:groupmode="layer"
     style="display:none"
     id="g4118">
    <path
       sodipodi:nodetypes="cssssssc"
       style="fill:none;stroke:#000000;stroke-width:105.23622131;stroke-linecap:butt;stroke-linejoin:miter;stroke-miterlimit:4;stroke-opacity:1;stroke-dasharray:none"
       d="m 556.21063,999.74409 0,-526.1811 c 0,-105.23622 -53.48269,-157.85433 -157.85433,-157.85433 l -52.61811,0 c -105.23622,0 -157.85434,55.61537 -157.85434,157.85433 l 0,105.23622 c 1e-5,104.39067 52.61812,157.85433 157.85434,157.85433 l 105.23622,0"
       id="path4121"
       inkscape:connector-curvature="0" />
  </g>
  <g
     id="g4123"
     style="display:none"
     inkscape:groupmode="layer"
     inkscape:label="GlyphLayer-p">
    <path
       inkscape:connector-curvature="0"
       id="path4125"
       d="m 187.88385,999.74409 0,-526.1811 c 0,-105.23622 53.48269,-157.85433 157.85433,-157.85433 l 52.61811,0 c 105.23622,0 157.85434,55.61537 157.85434,157.85433 l 0,105.23622 c -1e-5,104.39067 -52.61812,157.85433 -157.85434,157.85433 l -105.23622,0"
       style="fill:none;stroke:#000000;stroke-width:105.23622131;stroke-linecap:butt;stroke-linejoin:miter;stroke-miterlimit:4;stroke-opacity:1;stroke-dasharray:none"
       sodipodi:nodetypes="cssssssc" />
  </g>
  <g
     inkscape:label="GlyphLayer-o"
     inkscape:groupmode="layer"
     style="display:none"
     id="g4210">
    <path
       style="fill:none;stroke:#000000;stroke-width:105.23622131;stroke-linecap:butt;stroke-linejoin:miter;stroke-miterlimit:4;stroke-opacity:1;stroke-dasharray:none"
       d="m 187.88385,578.79921 c 0,105.23622 52.61812,157.85433 157.85433,157.85433 l 52.61812,0 c 105.23622,0 157.85432,-52.61811 157.85432,-157.85433 l 0,-105.23622 c 0,-105.23622 -52.61811,-157.85433 -157.85433,-157.85433 l -52.61811,0 c -105.23622,0 -157.85433,52.61811 -157.85433,157.85433 z"
       id="path4179"
       inkscape:connector-curvature="0"
       sodipodi:nodetypes="cccsssscc" />
  </g>
  <g
     id="g4158"
     style="display:none"
     inkscape:groupmode="layer"
     inkscape:label="GlyphLayer-n">
    <path
       sodipodi:nodetypes="cscsc"
       inkscape:connector-curvature="0"
       id="path4160"
       d="m 529.90157,789.27165 0,-368.32677 c 0,-105.23687 -66.33826,-105.23622 -157.85434,-105.23622 -105.23622,0 -157.85433,0 -157.85433,105.23622 l 0,368.32677"
       style="fill:none;stroke:#000000;stroke-width:105.23622131;stroke-linecap:butt;stroke-linejoin:miter;stroke-miterlimit:4;stroke-opacity:1;stroke-dasharray:none" />
  </g>
  <g
     inkscape:label="GlyphLayer-m"
     inkscape:groupmode="layer"
     style="display:none"
     id="g8495">
    <g
       id="g8529"
       transform="translate(-52.618105,0)">
      <path
         id="path8497-0"
         style="fill:none;stroke:#000000;stroke-width:105.23622131;stroke-linecap:butt;stroke-linejoin:miter;stroke-miterlimit:4;stroke-opacity:1;stroke-dasharray:none;display:inline"
         d="m 635.13779,789.27165 0,-368.32677 c 0,-79.85443 -27.69189,-105.23622 -105.23622,-105.23622 -78.01015,0 -105.23622,29.82361 -105.23622,105.23622 l 0,368.32677 m 0,0 0,-368.32677 c 0,-79.85443 -27.69189,-105.23622 -105.23622,-105.23622 -78.01015,0 -105.23622,29.82361 -105.23622,105.23622 l -1e-5,368.32677"
         inkscape:connector-curvature="0" />
    </g>
  </g>
  <g
     id="g4149"
     style="display:none"
     inkscape:groupmode="layer"
     inkscape:label="GlyphLayer-l">
    <path
       sodipodi:nodetypes="cssc"
       inkscape:connector-curvature="0"
       id="path4120"
       d="m 266.81102,52.61811 0,526.1811 c 0,105.23622 52.61811,157.85433 157.85433,157.85433 l 105.23622,0"
       style="fill:none;stroke:#000000;stroke-width:105.23622131;stroke-linecap:butt;stroke-linejoin:miter;stroke-miterlimit:4;stroke-opacity:1;stroke-dasharray:none" />
  </g>
  <g
     inkscape:label="GlyphLayer-k"
     inkscape:groupmode="layer"
     style="opacity:0.97000002;display:none"
     id="g8537">
    <path
       id="path8755-7"
       style="fill:none;stroke:#000000;stroke-width:105.23622131;stroke-linecap:butt;stroke-linejoin:miter;stroke-miterlimit:4;stroke-opacity:1;stroke-dasharray:none;display:inline"
       d="m 266.81102,315.70866 105.23622,0 c 106.10081,0 157.85433,0 157.85433,105.23622 0,107.57509 -54.09903,105.23622 -157.85433,105.23622 0,0 -5.84757,-1.25131 -52.61811,0 0,0 62.76545,-0.31601 78.92717,0 82.17308,1.60673 131.54527,48.36655 131.54527,157.85433 0,38.68278 0,105.23622 0,105.23622 M 214.19291,52.61811 l 0,736.65354"
       inkscape:connector-curvature="0" />
  </g>
  <g
     inkscape:label="GlyphLayer-j"
     inkscape:groupmode="layer"
     style="display:none"
     id="g8780">
    <path
       id="path4133"
       style="fill:none;stroke:#000000;stroke-width:105.23622131;stroke-linecap:butt;stroke-linejoin:miter;stroke-miterlimit:4;stroke-opacity:1;stroke-dasharray:none;display:inline"
       d="m 477.28346,52.61811 0,105.23622 m 0,105.23622 0,526.1811 c 0,105.23622 -52.61811,157.85433 -157.85433,157.85433 l -105.23622,0"
       inkscape:connector-curvature="0" />
  </g>
  <g
     id="g4131"
     style="display:none"
     inkscape:groupmode="layer"
     inkscape:label="GlyphLayer-i">
    <path
       id="path4133-6"
       style="fill:none;stroke:#000000;stroke-width:105.23622131;stroke-linecap:butt;stroke-linejoin:miter;stroke-miterlimit:4;stroke-opacity:1;stroke-dasharray:none;display:inline"
       d="m 372.04724,52.61811 0,105.23622 m 0,105.23622 0,526.1811"
       inkscape:connector-curvature="0" />
  </g>
  <g
     id="g8533"
     style="display:none"
     inkscape:groupmode="layer"
     inkscape:label="GlyphLayer-h">
    <path
       sodipodi:nodetypes="cccssc"
       inkscape:connector-curvature="0"
       id="path8535"
       d="m 214.1929,52.61811 0,736.65354 m 315.70867,0 0,-315.70866 c 0,-106.13086 -53.4827,-157.85433 -157.85433,-157.85433 l -105.23622,0"
       style="fill:none;stroke:#000000;stroke-width:105.23622131;stroke-linecap:butt;stroke-linejoin:miter;stroke-miterlimit:4;stroke-opacity:1;stroke-dasharray:none" />
  </g>
  <g
     inkscape:label="GlyphLayer-g"
     inkscape:groupmode="layer"
     style="display:none"
     id="g7624">
    <path
       sodipodi:nodetypes="cssssssssc"
       style="fill:none;stroke:#000000;stroke-width:105.23622131;stroke-linecap:butt;stroke-linejoin:miter;stroke-miterlimit:4;stroke-opacity:1;stroke-dasharray:none"
       d="m 450.97441,736.65354 -105.23622,0 c -105.23622,0 -157.85433,-53.46366 -157.85434,-157.85433 l 0,-105.23622 c 0,-102.23896 52.61812,-157.85433 157.85434,-157.85433 l 52.61811,0 c 104.37164,0 157.85433,52.61811 157.85433,157.85433 0,105.23622 -1.18342,263.09055 0,368.32677 1.18342,105.23622 -51.43193,105.23622 -157.85433,105.23622 l -236.7815,0"
       id="path7626"
       inkscape:connector-curvature="0" />
  </g>
  <g
     inkscape:label="GlyphLayer-f"
     inkscape:groupmode="layer"
     style="display:none"
     id="g7599">
    <path
       id="path7618"
       style="fill:none;stroke:#000000;stroke-width:105.23622131;stroke-linecap:butt;stroke-linejoin:miter;stroke-miterlimit:4;stroke-opacity:1;stroke-dasharray:none"
       d="m 319.42913,315.70866 105.23622,0 m -157.85433,473.56299 0,-526.1811 c 0,-105.23622 52.61811,-157.85433 157.85433,-157.85433 l 105.23622,0"
       inkscape:connector-curvature="0" />
  </g>
  <g
     inkscape:label="GlyphLayer-e"
     inkscape:groupmode="layer"
     style="display:none"
     id="g6155">
    <path
       style="fill:none;stroke:#000000;stroke-width:105.23622131;stroke-linecap:butt;stroke-linejoin:miter;stroke-miterlimit:4;stroke-opacity:1;stroke-dasharray:none"
       d="m 293.12008,526.1811 105.23622,0 c 105.36546,0 157.85433,0 157.85433,-105.23622 0,-105.23622 -55.41172,-105.23622 -157.85433,-105.23622 l -52.61811,0 c -102.96676,0 -157.85434,55.61537 -157.85434,157.85433 l 0,105.23622 c 0,104.39067 55.45242,157.85433 157.85434,157.85433 l 236.78149,0"
       id="path6157"
       inkscape:connector-curvature="0"
       sodipodi:nodetypes="csssssssc" />
  </g>
  <g
     id="g4842"
     style="display:none"
     inkscape:groupmode="layer"
     inkscape:label="GlyphLayer-d">
    <path
       sodipodi:nodetypes="cssssssc"
       inkscape:connector-curvature="0"
       id="path4844"
       d="m 556.21063,52.61811 0,526.1811 c 0,105.23622 -51.75354,157.85433 -157.85434,157.85433 l -52.61811,0 c -105.23622,0 -157.85433,-52.61811 -157.85433,-157.85433 l 0,-105.23622 c 0,-106.13086 53.48269,-157.85433 157.85433,-157.85433 l 105.23622,0"
       style="fill:none;stroke:#000000;stroke-width:105.23622131;stroke-linecap:butt;stroke-linejoin:miter;stroke-miterlimit:4;stroke-opacity:1;stroke-dasharray:none" />
  </g>
  <g
     inkscape:label="GlyphLayer-c"
     inkscape:groupmode="layer"
     style="display:none"
     id="g4127">
    <path
       style="fill:none;stroke:#000000;stroke-width:105.23622131;stroke-linecap:butt;stroke-linejoin:miter;stroke-miterlimit:4;stroke-opacity:1;stroke-dasharray:none"
       d="m 582.51969,736.65354 -210.47245,0 c -105.23622,0 -157.85433,-52.61811 -157.85433,-157.85433 l 0,-105.23622 c 0,-106.13086 53.48269,-157.85433 157.85433,-157.85433 l 210.47245,0"
       id="path4129"
       inkscape:connector-curvature="0"
       sodipodi:nodetypes="cssssc" />
  </g>
  <g
     inkscape:label="GlyphLayer-b"
     inkscape:groupmode="layer"
     style="display:none"
     id="g4132">
    <path
       style="fill:none;stroke:#000000;stroke-width:105.23622131;stroke-linecap:butt;stroke-linejoin:miter;stroke-miterlimit:4;stroke-opacity:1;stroke-dasharray:none"
       d="m 187.88385,52.61811 0,526.1811 c 0,105.23622 51.75354,157.85433 157.85434,157.85433 l 52.61811,0 c 105.23622,0 157.85433,-52.61811 157.85433,-157.85433 l 0,-105.23622 c 0,-106.13086 -53.48269,-157.85433 -157.85433,-157.85433 l -105.23622,0"
       id="path4097"
       inkscape:connector-curvature="0"
       sodipodi:nodetypes="cssssssc" />
  </g>
  <g
     id="g4276"
     style="display:none"
     inkscape:groupmode="layer"
     inkscape:label="GlyphLayer-a">
    <path
       inkscape:connector-curvature="0"
       id="path4242"
       d="m 556.21063,789.27165 0,-315.70866 c 0,-105.23622 -53.48269,-157.85433 -157.85433,-157.85433 l -52.61811,0 c -105.23622,0 -157.85434,55.61537 -157.85434,157.85433 l 0,105.23622 c 1e-5,104.39067 52.61812,157.85433 157.85434,157.85433 l 105.23622,0"
       style="fill:none;stroke:#000000;stroke-width:105.23622131;stroke-linecap:butt;stroke-linejoin:miter;stroke-miterlimit:4;stroke-opacity:1;stroke-dasharray:none"
       sodipodi:nodetypes="cssssssc" />
  </g>
</svg>
