<?xml version="1.0" encoding="UTF-8" standalone="no"?>
<!-- Created with Inkscape (http://www.inkscape.org/) -->

<svg
   xmlns:dc="http://purl.org/dc/elements/1.1/"
   xmlns:rdf="http://www.w3.org/1999/02/22-rdf-syntax-ns#"
   xmlns:svg="http://www.w3.org/2000/svg"
   xmlns="http://www.w3.org/2000/svg"
   version="1.0"
   width="320"
   height="320"
   xml:space="preserve">
<path
   d="M 320,160 C 320,248.36555 248.36556,320 160,320 71.63444,320 0,248.36555 0,160 0,71.63444 71.63444,0 160,0 248.36556,0 320,71.63444 320,160 l 0,0 z"
   id="path3174"
   style="fill:#ffffff;fill-opacity:1;stroke:none" />
<path
   d="m 159.43487,0 c -10.84371,0.0578 -21.43198,1.2349 -31.66091,3.37239 -1.98729,0.41529 -3.89215,1.02072 -5.85147,1.50994 C 55.22756,21.20902 4.87448,79.20665 0.37195,149.72745 l 32.91997,0 0,-34.17584 6.06608,0 18.18392,0 0,-19.261 c -3.47807,-1.07811 -6.03747,-4.20528 -6.03747,-8.04294 0,-4.71701 3.79071,-8.52285 8.49819,-8.52285 4.70761,0 8.54117,3.80584 8.54117,8.52285 0,3.41664 -2.04156,6.30908 -4.93581,7.6761 l 0,19.62784 15.75182,0 c 1.18597,-3.2909 4.27727,-5.67246 7.96878,-5.67246 4.70761,0 8.49826,3.80585 8.49826,8.52278 0,4.717 -3.79065,8.55106 -8.49826,8.55106 -3.69993,0 -6.78901,-2.39825 -7.96878,-5.70075 l -40.00182,0 0,28.47521 15.17943,0 4.77847,0 1.259,0 0,45.60537 18.78492,0 c 1.17977,-3.30237 4.26885,-5.71473 7.96878,-5.71473 4.70761,0 8.49826,3.84811 8.49826,8.5651 0,4.71707 -3.79065,8.52285 -8.49826,8.52285 -3.70131,0 -6.79005,-2.39631 -7.96878,-5.70068 l -50.81784,0 c -1.17892,3.30398 -4.2392,5.70068 -7.94017,5.70068 -4.70761,0 -8.52687,-3.80578 -8.52687,-8.52285 0,-4.71699 3.81926,-8.5651 8.52687,-8.5651 3.69954,0 6.76021,2.41275 7.94017,5.71473 l 25.99545,0 0,-39.89063 -15.17943,0 -6.06608,0 -33.19173,0 C 0.05699,156.96697 0,158.49302 0,160.02817 c 0,79.52148 58.25387,145.34493 134.36938,157.64361 8.18411,1.35304 16.51243,2.28255 25.06549,2.32822 l 0,-0.11298 c 0.19116,7e-4 0.36665,0.0283 0.55789,0.0283 C 248.31238,319.91532 320,248.29192 320,160.02819 320,71.76446 248.31238,0.11294 159.99276,0.11294 c -0.19124,0 -0.36673,0.0276 -0.55789,0.0281 l 0,-0.14107 z m 0.55789,5.24918 c 85.73619,0 155.32896,69.40737 155.32896,154.9484 -1.3e-4,85.54089 -69.59277,154.94828 -155.32896,154.94828 -0.19131,1.3e-4 -0.36667,-0.0275 -0.55789,-0.0281 l 0,-42.75519 -31.51789,0 0,-144.47829 31.51789,0 0,-16.25545 c -17.31909,-0.34082 -31.28896,-14.45124 -31.28896,-31.87582 0,-17.42452 13.96987,-31.57753 31.28896,-31.91815 l 0,-42.55749 c 0.19122,-7.1e-4 0.36658,-0.0282 0.55789,-0.0282 z m -0.55789,42.5857 0,4.47306 c 0.26026,-0.007 0.49617,-0.0847 0.75819,-0.0847 14.97481,0 27.12572,12.22036 27.12572,27.27575 0,15.05539 -12.15091,27.28985 -27.12572,27.28985 -0.26202,0 -0.49793,-0.0772 -0.75819,-0.0846 l 0,4.92454 c 0.21212,0.004 0.40212,0.0565 0.61516,0.0565 17.61311,0 31.91849,-14.29426 31.91849,-31.93232 0,-17.638 -14.30538,-31.97465 -31.91849,-31.97465 -0.21304,0 -0.40304,0.0523 -0.61516,0.0565 z m 0,58.86943 0,-54.39637 c -14.613,0.41715 -26.3674,12.39922 -26.3674,27.1911 0,14.79186 11.75447,26.78772 26.3674,27.20527 z m 0,21.17999 0,5.15027 26.8968,0 0,134.1777 -26.8968,0 0,5.15032 32.71959,0 0,-144.47829 -32.71959,0 z m 0,139.32797 0,-134.1777 -25.65211,0 0,134.1777 25.65211,0 z"
   id="path4853"
   style="fill:#000000;fill-opacity:1;fill-rule:evenodd;stroke:none" />
</svg>
