  0
SECTION
  2
HEADER
  9
$ACADVER
  1
AC1009
  9
$EXTMAX
 10
3.5555555820465
 20
3.5555555820465
 30
0.0
  9
$EXTMIN
 10
0.0
 20
0.0
 30
0.0
  9
$INSUNITS
 70
     4
  9
$LUNITS
 70
     2
  9
$LUPREC
 70
     4
  9
$MEASUREMENT
 70
     1
  0
ENDSEC
  0
SECTION
  2
TABLES
  0
TABLE
  2
LAYER
 70
     1
  0
LAYER
  2
0
 70
     0
 62
     7
  6
Continuous
  0
ENDTAB
  0
TABLE
  2
APPID
 70
     1
  0
APPID
  2
ACAD
 70
     0
  0
ENDTAB
  0
ENDSEC
  0
SECTION
  2
ENTITIES
  0
POLYLINE
  8
0
 66
     1
 10
0.0
 20
0.0
 30
0.0
 70
     0
  0
SEQEND
  0
POLYLINE
  8
0
 66
     1
 10
0.0
 20
0.0
 30
0.0
 70
     0
  0
SEQEND
  0
POLYLINE
  8
0
 66
     1
 10
0.0
 20
0.0
 30
0.0
 70
     1
  0
VERTEX
  8
0
 10
3.5555555555556
 20
1.7777777777778
 42
0.0
  0
VERTEX
  8
0
 10
3.5322869027778
 20
1.489417875
 42
0.0
  0
VERTEX
  8
0
 10
3.4649213333333
 20
1.2158702222222
 42
0.0
  0
VERTEX
  8
0
 10
3.3571194305556
 20
0.9607954027778
 42
0.0
  0
VERTEX
  8
0
 10
3.2125417777778
 20
0.727854
 42
0.0
  0
VERTEX
  8
0
 10
3.0348489583333
 20
0.5207065972222
 42
0.0
  0
VERTEX
  8
0
 10
2.8277015555556
 20
0.3430137777778
 42
0.0
  0
VERTEX
  8
0
 10
2.5947601527778
 20
0.198436125
 42
0.0
  0
VERTEX
  8
0
 10
2.3396853333333
 20
0.0906342222222
 42
0.0
  0
VERTEX
  8
0
 10
2.0661376805556
 20
0.0232686527778
 42
0.0
  0
VERTEX
  8
0
 10
1.7777777777778
 20
0.0
 42
0.0
  0
VERTEX
  8
0
 10
1.7777777777778
 20
0.0
 42
0.0
  0
VERTEX
  8
0
 10
1.489417875
 20
0.0232686527778
 42
0.0
  0
VERTEX
  8
0
 10
1.2158702222222
 20
0.0906342222222
 42
0.0
  0
VERTEX
  8
0
 10
0.9607954027778
 20
0.198436125
 42
0.0
  0
VERTEX
  8
0
 10
0.727854
 20
0.3430137777778
 42
0.0
  0
VERTEX
  8
0
 10
0.5207065972222
 20
0.5207065972222
 42
0.0
  0
VERTEX
  8
0
 10
0.3430137777778
 20
0.727854
 42
0.0
  0
VERTEX
  8
0
 10
0.198436125
 20
0.9607954027778
 42
0.0
  0
VERTEX
  8
0
 10
0.0906342222222
 20
1.2158702222222
 42
0.0
  0
VERTEX
  8
0
 10
0.0232686527778
 20
1.489417875
 42
0.0
  0
VERTEX
  8
0
 10
0.0
 20
1.7777777777778
 42
0.0
  0
VERTEX
  8
0
 10
0.0
 20
1.7777777777778
 42
0.0
  0
VERTEX
  8
0
 10
0.0232686527778
 20
2.0661376805556
 42
0.0
  0
VERTEX
  8
0
 10
0.0906342222222
 20
2.3396853333333
 42
0.0
  0
VERTEX
  8
0
 10
0.198436125
 20
2.5947601527778
 42
0.0
  0
VERTEX
  8
0
 10
0.3430137777778
 20
2.8277015555556
 42
0.0
  0
VERTEX
  8
0
 10
0.5207065972222
 20
3.0348489583333
 42
0.0
  0
VERTEX
  8
0
 10
0.727854
 20
3.2125417777778
 42
0.0
  0
VERTEX
  8
0
 10
0.9607954027778
 20
3.3571194305556
 42
0.0
  0
VERTEX
  8
0
 10
1.2158702222222
 20
3.4649213333333
 42
0.0
  0
VERTEX
  8
0
 10
1.489417875
 20
3.5322869027778
 42
0.0
  0
VERTEX
  8
0
 10
1.7777777777778
 20
3.5555555555556
 42
0.0
  0
VERTEX
  8
0
 10
1.7777777777778
 20
3.5555555555556
 42
0.0
  0
VERTEX
  8
0
 10
2.0661376805556
 20
3.5322869027778
 42
0.0
  0
VERTEX
  8
0
 10
2.3396853333333
 20
3.4649213333333
 42
0.0
  0
VERTEX
  8
0
 10
2.5947601527778
 20
3.3571194305556
 42
0.0
  0
VERTEX
  8
0
 10
2.8277015555556
 20
3.2125417777778
 42
0.0
  0
VERTEX
  8
0
 10
3.0348489583333
 20
3.0348489583333
 42
0.0
  0
VERTEX
  8
0
 10
3.2125417777778
 20
2.8277015555556
 42
0.0
  0
VERTEX
  8
0
 10
3.3571194305556
 20
2.5947601527778
 42
0.0
  0
VERTEX
  8
0
 10
3.4649213333333
 20
2.3396853333333
 42
0.0
  0
VERTEX
  8
0
 10
3.5322869027778
 20
2.0661376805556
 42
0.0
  0
VERTEX
  8
0
 10
3.5555555555556
 20
1.7777777777778
 42
0.0
  0
VERTEX
  8
0
 10
3.5555555555556
 20
1.7777777777778
 42
0.0
  0
SEQEND
  0
POLYLINE
  8
0
 66
     1
 10
0.0
 20
0.0
 30
0.0
 70
     0
  0
SEQEND
  0
POLYLINE
  8
0
 66
     1
 10
0.0
 20
0.0
 30
0.0
 70
     1
  0
VERTEX
  8
0
 10
1.7714861111111
 20
3.5555555555556
 42
0.0
  0
VERTEX
  8
0
 10
1.7354234583333
 20
3.5549889444444
 42
0.0
  0
VERTEX
  8
0
 10
1.6995398888889
 20
3.5536876666667
 42
0.0
  0
VERTEX
  8
0
 10
1.6638419861111
 20
3.5516620555556
 42
0.0
  0
VERTEX
  8
0
 10
1.6283363333333
 20
3.5489224444444
 42
0.0
  0
VERTEX
  8
0
 10
1.5930295138889
 20
3.5454791666667
 42
0.0
  0
VERTEX
  8
0
 10
1.5579281111111
 20
3.5413425555556
 42
0.0
  0
VERTEX
  8
0
 10
1.5230387083333
 20
3.5365229444444
 42
0.0
  0
VERTEX
  8
0
 10
1.4883678888889
 20
3.5310306666667
 42
0.0
  0
VERTEX
  8
0
 10
1.4539222361111
 20
3.5248760555556
 42
0.0
  0
VERTEX
  8
0
 10
1.4197083333333
 20
3.5180694444444
 42
0.0
  0
VERTEX
  8
0
 10
1.4197083333333
 20
3.5180694444444
 42
0.0
  0
VERTEX
  8
0
 10
1.4131093333333
 20
3.5166258055556
 42
0.0
  0
VERTEX
  8
0
 10
1.4065563333333
 20
3.5150753333333
 42
0.0
  0
VERTEX
  8
0
 10
1.4000403333333
 20
3.5134386944444
 42
0.0
  0
VERTEX
  8
0
 10
1.3935523333333
 20
3.5117365555556
 42
0.0
  0
VERTEX
  8
0
 10
1.3870833333333
 20
3.5099895833333
 42
0.0
  0
VERTEX
  8
0
 10
1.3806243333333
 20
3.5082184444444
 42
0.0
  0
VERTEX
  8
0
 10
1.3741663333333
 20
3.5064438055556
 42
0.0
  0
VERTEX
  8
0
 10
1.3677003333333
 20
3.5046863333333
 42
0.0
  0
VERTEX
  8
0
 10
1.3612173333333
 20
3.5029666944444
 42
0.0
  0
VERTEX
  8
0
 10
1.3547083333333
 20
3.5013055555556
 42
0.0
  0
VERTEX
  8
0
 10
1.3547083333333
 20
3.5013055555556
 42
0.0
  0
VERTEX
  8
0
 10
1.1381692499583
 20
3.4333106805556
 42
0.0
  0
VERTEX
  8
0
 10
0.9344889996667
 20
3.3394798888889
 42
0.0
  0
VERTEX
  8
0
 10
0.7456355822083
 20
3.2217564305556
 42
0.0
  0
VERTEX
  8
0
 10
0.5735769973333
 20
3.0820835555556
 42
0.0
  0
VERTEX
  8
0
 10
0.4202812447917
 20
2.9224045138889
 42
0.0
  0
VERTEX
  8
0
 10
0.2877163243333
 20
2.7446625555556
 42
0.0
  0
VERTEX
  8
0
 10
0.1778502357083
 20
2.5508009305556
 42
0.0
  0
VERTEX
  8
0
 10
0.0926509786667
 20
2.3427628888889
 42
0.0
  0
VERTEX
  8
0
 10
0.0340865529583
 20
2.1224916805556
 42
0.0
  0
VERTEX
  8
0
 10
0.0041249583333
 20
1.8919305555556
 42
0.0
  0
VERTEX
  8
0
 10
0.0041249583333
 20
1.8919305555556
 42
0.0
  0
VERTEX
  8
0
 10
0.3699027777778
 20
1.8919305555556
 42
0.0
  0
VERTEX
  8
0
 10
0.3699027777778
 20
1.8919305555556
 42
0.0
  0
VERTEX
  8
0
 10
0.3699027777778
 20
2.2716527777778
 42
0.0
  0
VERTEX
  8
0
 10
0.3699027777778
 20
2.2716527777778
 42
0.0
  0
VERTEX
  8
0
 10
0.639375
 20
2.2716527777778
 42
0.0
  0
VERTEX
  8
0
 10
0.639375
 20
2.2716527777778
 42
0.0
  0
VERTEX
  8
0
 10
0.639375
 20
2.4856805555556
 42
0.0
  0
VERTEX
  8
0
 10
0.639375
 20
2.4856805555556
 42
0.0
  0
VERTEX
  8
0
 10
0.6280965138889
 20
2.4899301527778
 42
0.0
  0
VERTEX
  8
0
 10
0.6175421111111
 20
2.4954606666667
 42
0.0
  0
VERTEX
  8
0
 10
0.607820875
 20
2.5021821805556
 42
0.0
  0
VERTEX
  8
0
 10
0.5990418888889
 20
2.5100047777778
 42
0.0
  0
VERTEX
  8
0
 10
0.5913142361111
 20
2.5188385416667
 42
0.0
  0
VERTEX
  8
0
 10
0.584747
 20
2.5285935555556
 42
0.0
  0
VERTEX
  8
0
 10
0.5794492638889
 20
2.5391799027778
 42
0.0
  0
VERTEX
  8
0
 10
0.5755301111111
 20
2.5505076666667
 42
0.0
  0
VERTEX
  8
0
 10
0.573098625
 20
2.5624869305556
 42
0.0
  0
VERTEX
  8
0
 10
0.5722638888889
 20
2.5750277777778
 42
0.0
  0
VERTEX
  8
0
 10
0.5722638888889
 20
2.5750277777778
 42
0.0
  0
VERTEX
  8
0
 10
0.5734949722222
 20
2.5904160833333
 42
0.0
  0
VERTEX
  8
0
 10
0.5770608888889
 20
2.6050025555556
 42
0.0
  0
VERTEX
  8
0
 10
0.5827706388889
 20
2.6185945277778
 42
0.0
  0
VERTEX
  8
0
 10
0.5904332222222
 20
2.6309993333333
 42
0.0
  0
VERTEX
  8
0
 10
0.5998576388889
 20
2.6420243055556
 42
0.0
  0
VERTEX
  8
0
 10
0.6108528888889
 20
2.6514767777778
 42
0.0
  0
VERTEX
  8
0
 10
0.6232279722222
 20
2.6591640833333
 42
0.0
  0
VERTEX
  8
0
 10
0.6367918888889
 20
2.6648935555556
 42
0.0
  0
VERTEX
  8
0
 10
0.6513536388889
 20
2.6684725277778
 42
0.0
  0
VERTEX
  8
0
 10
0.6667222222222
 20
2.6697083333333
 42
0.0
  0
VERTEX
  8
0
 10
0.6667222222222
 20
2.6697083333333
 42
0.0
  0
VERTEX
  8
0
 10
0.6820893611111
 20
2.6684725277778
 42
0.0
  0
VERTEX
  8
0
 10
0.696676
 20
2.6648935555556
 42
0.0
  0
VERTEX
  8
0
 10
0.7102849722222
 20
2.6591640833333
 42
0.0
  0
VERTEX
  8
0
 10
0.7227191111111
 20
2.6514767777778
 42
0.0
  0
VERTEX
  8
0
 10
0.73378125
 20
2.6420243055556
 42
0.0
  0
VERTEX
  8
0
 10
0.7432742222222
 20
2.6309993333333
 42
0.0
  0
VERTEX
  8
0
 10
0.7510008611111
 20
2.6185945277778
 42
0.0
  0
VERTEX
  8
0
 10
0.756764
 20
2.6050025555556
 42
0.0
  0
VERTEX
  8
0
 10
0.7603664722222
 20
2.5904160833333
 42
0.0
  0
VERTEX
  8
0
 10
0.7616111111111
 20
2.5750277777778
 42
0.0
  0
VERTEX
  8
0
 10
0.7616111111111
 20
2.5750277777778
 42
0.0
  0
VERTEX
  8
0
 10
0.7609438888889
 20
2.563822625
 42
0.0
  0
VERTEX
  8
0
 10
0.758995
 20
2.5530348888889
 42
0.0
  0
VERTEX
  8
0
 10
0.7558436111111
 20
2.5427311527778
 42
0.0
  0
VERTEX
  8
0
 10
0.7515688888889
 20
2.532978
 42
0.0
  0
VERTEX
  8
0
 10
0.74625
 20
2.5238420138889
 42
0.0
  0
VERTEX
  8
0
 10
0.7399661111111
 20
2.5153897777778
 42
0.0
  0
VERTEX
  8
0
 10
0.7327963888889
 20
2.507687875
 42
0.0
  0
VERTEX
  8
0
 10
0.72482
 20
2.5008028888889
 42
0.0
  0
VERTEX
  8
0
 10
0.7161161111111
 20
2.4948014027778
 42
0.0
  0
VERTEX
  8
0
 10
0.7067638888889
 20
2.48975
 42
0.0
  0
VERTEX
  8
0
 10
0.7067638888889
 20
2.48975
 42
0.0
  0
VERTEX
  8
0
 10
0.7067638888889
 20
2.2716527777778
 42
0.0
  0
VERTEX
  8
0
 10
0.7067638888889
 20
2.2716527777778
 42
0.0
  0
VERTEX
  8
0
 10
0.8817777777778
 20
2.2716527777778
 42
0.0
  0
VERTEX
  8
0
 10
0.8817777777778
 20
2.2716527777778
 42
0.0
  0
VERTEX
  8
0
 10
0.8863558194444
 20
2.2823009444444
 42
0.0
  0
VERTEX
  8
0
 10
0.8921154444444
 20
2.2922464444444
 42
0.0
  0
VERTEX
  8
0
 10
0.8989699027778
 20
2.3013907777778
 42
0.0
  0
VERTEX
  8
0
 10
0.9068324444444
 20
2.3096354444444
 42
0.0
  0
VERTEX
  8
0
 10
0.9156163194444
 20
2.3168819444444
 42
0.0
  0
VERTEX
  8
0
 10
0.9252347777778
 20
2.3230317777778
 42
0.0
  0
VERTEX
  8
0
 10
0.9356010694444
 20
2.3279864444444
 42
0.0
  0
VERTEX
  8
0
 10
0.9466284444444
 20
2.3316474444444
 42
0.0
  0
VERTEX
  8
0
 10
0.9582301527778
 20
2.3339162777778
 42
0.0
  0
VERTEX
  8
0
 10
0.9703194444444
 20
2.3346944444444
 42
0.0
  0
VERTEX
  8
0
 10
0.9703194444444
 20
2.3346944444444
 42
0.0
  0
VERTEX
  8
0
 10
0.9856729722222
 20
2.3334570833333
 42
0.0
  0
VERTEX
  8
0
 10
1.0002226666667
 20
2.3298738888889
 42
0.0
  0
VERTEX
  8
0
 10
1.0137771944444
 20
2.3241381944444
 42
0.0
  0
VERTEX
  8
0
 10
1.0261452222222
 20
2.3164433333333
 42
0.0
  0
VERTEX
  8
0
 10
1.0371354166667
 20
2.3069826388889
 42
0.0
  0
VERTEX
  8
0
 10
1.0465564444444
 20
2.2959494444444
 42
0.0
  0
VERTEX
  8
0
 10
1.0542169722222
 20
2.2835370833333
 42
0.0
  0
VERTEX
  8
0
 10
1.0599256666667
 20
2.2699388888889
 42
0.0
  0
VERTEX
  8
0
 10
1.0634911944444
 20
2.2553481944444
 42
0.0
  0
VERTEX
  8
0
 10
1.0647222222222
 20
2.2399583333333
 42
0.0
  0
VERTEX
  8
0
 10
1.0647222222222
 20
2.2399583333333
 42
0.0
  0
VERTEX
  8
0
 10
1.0634911944444
 20
2.2245648472222
 42
0.0
  0
VERTEX
  8
0
 10
1.0599256666667
 20
2.2099571111111
 42
0.0
  0
VERTEX
  8
0
 10
1.0542169722222
 20
2.1963317083333
 42
0.0
  0
VERTEX
  8
0
 10
1.0465564444444
 20
2.1838852222222
 42
0.0
  0
VERTEX
  8
0
 10
1.0371354166667
 20
2.1728142361111
 42
0.0
  0
VERTEX
  8
0
 10
1.0261452222222
 20
2.1633153333333
 42
0.0
  0
VERTEX
  8
0
 10
1.0137771944444
 20
2.1555850972222
 42
0.0
  0
VERTEX
  8
0
 10
1.0002226666667
 20
2.1498201111111
 42
0.0
  0
VERTEX
  8
0
 10
0.9856729722222
 20
2.1462169583333
 42
0.0
  0
VERTEX
  8
0
 10
0.9703194444444
 20
2.1449722222222
 42
0.0
  0
VERTEX
  8
0
 10
0.9703194444444
 20
2.1449722222222
 42
0.0
  0
VERTEX
  8
0
 10
0.9582016527778
 20
2.1457544583333
 42
0.0
  0
VERTEX
  8
0
 10
0.9465804444444
 20
2.1480351111111
 42
0.0
  0
VERTEX
  8
0
 10
0.9355415694444
 20
2.1517150972222
 42
0.0
  0
VERTEX
  8
0
 10
0.9251707777778
 20
2.1566953333333
 42
0.0
  0
VERTEX
  8
0
 10
0.9155538194444
 20
2.1628767361111
 42
0.0
  0
VERTEX
  8
0
 10
0.9067764444444
 20
2.1701602222222
 42
0.0
  0
VERTEX
  8
0
 10
0.8989244027778
 20
2.1784467083333
 42
0.0
  0
VERTEX
  8
0
 10
0.8920834444444
 20
2.1876371111111
 42
0.0
  0
VERTEX
  8
0
 10
0.8863393194444
 20
2.1976323472222
 42
0.0
  0
VERTEX
  8
0
 10
0.8817777777778
 20
2.2083333333333
 42
0.0
  0
VERTEX
  8
0
 10
0.8817777777778
 20
2.2083333333333
 42
0.0
  0
VERTEX
  8
0
 10
0.4373333333333
 20
2.2083333333333
 42
0.0
  0
VERTEX
  8
0
 10
0.4373333333333
 20
2.2083333333333
 42
0.0
  0
VERTEX
  8
0
 10
0.4373333333333
 20
1.8919305555556
 42
0.0
  0
VERTEX
  8
0
 10
0.4373333333333
 20
1.8919305555556
 42
0.0
  0
VERTEX
  8
0
 10
0.6730694444444
 20
1.8919305555556
 42
0.0
  0
VERTEX
  8
0
 10
0.6730694444444
 20
1.8919305555556
 42
0.0
  0
VERTEX
  8
0
 10
0.6730694444444
 20
1.3851944444444
 42
0.0
  0
VERTEX
  8
0
 10
0.6730694444444
 20
1.3851944444444
 42
0.0
  0
VERTEX
  8
0
 10
0.8817777777778
 20
1.3851944444444
 42
0.0
  0
VERTEX
  8
0
 10
0.8817777777778
 20
1.3851944444444
 42
0.0
  0
VERTEX
  8
0
 10
0.8863393194444
 20
1.3958854305556
 42
0.0
  0
VERTEX
  8
0
 10
0.8920834444444
 20
1.4058823333333
 42
0.0
  0
VERTEX
  8
0
 10
0.8989244027778
 20
1.4150835694444
 42
0.0
  0
VERTEX
  8
0
 10
0.9067764444444
 20
1.4233875555556
 42
0.0
  0
VERTEX
  8
0
 10
0.9155538194444
 20
1.4306927083333
 42
0.0
  0
VERTEX
  8
0
 10
0.9251707777778
 20
1.4368974444444
 42
0.0
  0
VERTEX
  8
0
 10
0.9355415694444
 20
1.4419001805556
 42
0.0
  0
VERTEX
  8
0
 10
0.9465804444444
 20
1.4455993333333
 42
0.0
  0
VERTEX
  8
0
 10
0.9582016527778
 20
1.4478933194444
 42
0.0
  0
VERTEX
  8
0
 10
0.9703194444444
 20
1.4486805555556
 42
0.0
  0
VERTEX
  8
0
 10
0.9703194444444
 20
1.4486805555556
 42
0.0
  0
VERTEX
  8
0
 10
0.9856729722222
 20
1.4474311388889
 42
0.0
  0
VERTEX
  8
0
 10
1.0002226666667
 20
1.4438152222222
 42
0.0
  0
VERTEX
  8
0
 10
1.0137771944444
 20
1.4380313055556
 42
0.0
  0
VERTEX
  8
0
 10
1.0261452222222
 20
1.4302778888889
 42
0.0
  0
VERTEX
  8
0
 10
1.0371354166667
 20
1.4207534722222
 42
0.0
  0
VERTEX
  8
0
 10
1.0465564444444
 20
1.4096565555556
 42
0.0
  0
VERTEX
  8
0
 10
1.0542169722222
 20
1.3971856388889
 42
0.0
  0
VERTEX
  8
0
 10
1.0599256666667
 20
1.3835392222222
 42
0.0
  0
VERTEX
  8
0
 10
1.0634911944444
 20
1.3689158055556
 42
0.0
  0
VERTEX
  8
0
 10
1.0647222222222
 20
1.3535138888889
 42
0.0
  0
VERTEX
  8
0
 10
1.0647222222222
 20
1.3535138888889
 42
0.0
  0
VERTEX
  8
0
 10
1.0634911944444
 20
1.3381293472222
 42
0.0
  0
VERTEX
  8
0
 10
1.0599256666667
 20
1.3235458888889
 42
0.0
  0
VERTEX
  8
0
 10
1.0542169722222
 20
1.3099562638889
 42
0.0
  0
VERTEX
  8
0
 10
1.0465564444444
 20
1.2975532222222
 42
0.0
  0
VERTEX
  8
0
 10
1.0371354166667
 20
1.2865295138889
 42
0.0
  0
VERTEX
  8
0
 10
1.0261452222222
 20
1.2770778888889
 42
0.0
  0
VERTEX
  8
0
 10
1.0137771944444
 20
1.2693910972222
 42
0.0
  0
VERTEX
  8
0
 10
1.0002226666667
 20
1.2636618888889
 42
0.0
  0
VERTEX
  8
0
 10
0.9856729722222
 20
1.2600830138889
 42
0.0
  0
VERTEX
  8
0
 10
0.9703194444444
 20
1.2588472222222
 42
0.0
  0
VERTEX
  8
0
 10
0.9703194444444
 20
1.2588472222222
 42
0.0
  0
VERTEX
  8
0
 10
0.9582001527778
 20
1.2596282777778
 42
0.0
  0
VERTEX
  8
0
 10
0.9465751111111
 20
1.2619056666667
 42
0.0
  0
VERTEX
  8
0
 10
0.9355310694444
 20
1.2655807222222
 42
0.0
  0
VERTEX
  8
0
 10
0.9251547777778
 20
1.2705547777778
 42
0.0
  0
VERTEX
  8
0
 10
0.9155329861111
 20
1.2767291666667
 42
0.0
  0
VERTEX
  8
0
 10
0.9067524444444
 20
1.2840052222222
 42
0.0
  0
VERTEX
  8
0
 10
0.8988999027778
 20
1.2922842777778
 42
0.0
  0
VERTEX
  8
0
 10
0.8920621111111
 20
1.3014676666667
 42
0.0
  0
VERTEX
  8
0
 10
0.8863258194444
 20
1.3114567222222
 42
0.0
  0
VERTEX
  8
0
 10
0.8817777777778
 20
1.3221527777778
 42
0.0
  0
VERTEX
  8
0
 10
0.8817777777778
 20
1.3221527777778
 42
0.0
  0
VERTEX
  8
0
 10
0.3171111111111
 20
1.3221527777778
 42
0.0
  0
VERTEX
  8
0
 10
0.3171111111111
 20
1.3221527777778
 42
0.0
  0
VERTEX
  8
0
 10
0.3125753888889
 20
1.3114567222222
 42
0.0
  0
VERTEX
  8
0
 10
0.3068653333333
 20
1.3014676666667
 42
0.0
  0
VERTEX
  8
0
 10
0.3000641111111
 20
1.2922842777778
 42
0.0
  0
VERTEX
  8
0
 10
0.2922548888889
 20
1.2840052222222
 42
0.0
  0
VERTEX
  8
0
 10
0.2835208333333
 20
1.2767291666667
 42
0.0
  0
VERTEX
  8
0
 10
0.2739451111111
 20
1.2705547777778
 42
0.0
  0
VERTEX
  8
0
 10
0.2636108888889
 20
1.2655807222222
 42
0.0
  0
VERTEX
  8
0
 10
0.2526013333333
 20
1.2619056666667
 42
0.0
  0
VERTEX
  8
0
 10
0.2409996111111
 20
1.2596282777778
 42
0.0
  0
VERTEX
  8
0
 10
0.2288888888889
 20
1.2588472222222
 42
0.0
  0
VERTEX
  8
0
 10
0.2288888888889
 20
1.2588472222222
 42
0.0
  0
VERTEX
  8
0
 10
0.2135297877778
 20
1.2600830138889
 42
0.0
  0
VERTEX
  8
0
 10
0.1989577633333
 20
1.2636618888889
 42
0.0
  0
VERTEX
  8
0
 10
0.1853682338889
 20
1.2693910972222
 42
0.0
  0
VERTEX
  8
0
 10
0.1729566177778
 20
1.2770778888889
 42
0.0
  0
VERTEX
  8
0
 10
0.1619183333333
 20
1.2865295138889
 42
0.0
  0
VERTEX
  8
0
 10
0.1524487988889
 20
1.2975532222222
 42
0.0
  0
VERTEX
  8
0
 10
0.1447434327778
 20
1.3099562638889
 42
0.0
  0
VERTEX
  8
0
 10
0.1389976533333
 20
1.3235458888889
 42
0.0
  0
VERTEX
  8
0
 10
0.1354068788889
 20
1.3381293472222
 42
0.0
  0
VERTEX
  8
0
 10
0.1341665277778
 20
1.3535138888889
 42
0.0
  0
VERTEX
  8
0
 10
0.1341665277778
 20
1.3535138888889
 42
0.0
  0
VERTEX
  8
0
 10
0.1354068788889
 20
1.3689158055556
 42
0.0
  0
VERTEX
  8
0
 10
0.1389976533333
 20
1.3835392222222
 42
0.0
  0
VERTEX
  8
0
 10
0.1447434327778
 20
1.3971856388889
 42
0.0
  0
VERTEX
  8
0
 10
0.1524487988889
 20
1.4096565555556
 42
0.0
  0
VERTEX
  8
0
 10
0.1619183333333
 20
1.4207534722222
 42
0.0
  0
VERTEX
  8
0
 10
0.1729566177778
 20
1.4302778888889
 42
0.0
  0
VERTEX
  8
0
 10
0.1853682338889
 20
1.4380313055556
 42
0.0
  0
VERTEX
  8
0
 10
0.1989577633333
 20
1.4438152222222
 42
0.0
  0
VERTEX
  8
0
 10
0.2135297877778
 20
1.4474311388889
 42
0.0
  0
VERTEX
  8
0
 10
0.2288888888889
 20
1.4486805555556
 42
0.0
  0
VERTEX
  8
0
 10
0.2288888888889
 20
1.4486805555556
 42
0.0
  0
VERTEX
  8
0
 10
0.2409996111111
 20
1.4478933194444
 42
0.0
  0
VERTEX
  8
0
 10
0.2526013333333
 20
1.4455993333333
 42
0.0
  0
VERTEX
  8
0
 10
0.2636108888889
 20
1.4419001805556
 42
0.0
  0
VERTEX
  8
0
 10
0.2739451111111
 20
1.4368974444444
 42
0.0
  0
VERTEX
  8
0
 10
0.2835208333333
 20
1.4306927083333
 42
0.0
  0
VERTEX
  8
0
 10
0.2922548888889
 20
1.4233875555556
 42
0.0
  0
VERTEX
  8
0
 10
0.3000641111111
 20
1.4150835694444
 42
0.0
  0
VERTEX
  8
0
 10
0.3068653333333
 20
1.4058823333333
 42
0.0
  0
VERTEX
  8
0
 10
0.3125753888889
 20
1.3958854305556
 42
0.0
  0
VERTEX
  8
0
 10
0.3171111111111
 20
1.3851944444444
 42
0.0
  0
VERTEX
  8
0
 10
0.3171111111111
 20
1.3851944444444
 42
0.0
  0
VERTEX
  8
0
 10
0.6059583333333
 20
1.3851944444444
 42
0.0
  0
VERTEX
  8
0
 10
0.6059583333333
 20
1.3851944444444
 42
0.0
  0
VERTEX
  8
0
 10
0.6059583333333
 20
1.8284027777778
 42
0.0
  0
VERTEX
  8
0
 10
0.6059583333333
 20
1.8284027777778
 42
0.0
  0
VERTEX
  8
0
 10
0.0011386444444
 20
1.8284027777778
 42
0.0
  0
VERTEX
  8
0
 10
0.0011386444444
 20
1.8284027777778
 42
0.0
  0
VERTEX
  8
0
 10
0.0009886870125
 20
1.8233234583333
 42
0.0
  0
VERTEX
  8
0
 10
0.0008336371556
 20
1.8182432222222
 42
0.0
  0
VERTEX
  8
0
 10
0.0006784122819
 20
1.8131611527778
 42
0.0
  0
VERTEX
  8
0
 10
0.0005279298
 20
1.8080763333333
 42
0.0
  0
VERTEX
  8
0
 10
0.0003871071181
 20
1.8029878472222
 42
0.0
  0
VERTEX
  8
0
 10
0.0002608616444
 20
1.7978947777778
 42
0.0
  0
VERTEX
  8
0
 10
0.0001541107875
 20
1.7927962083333
 42
0.0
  0
VERTEX
  8
0
 10
0.0000717719556
 20
1.7876912222222
 42
0.0
  0
VERTEX
  8
0
 10
0.0000187625569
 20
1.7825789027778
 42
0.0
  0
VERTEX
  8
0
 10
0.0
 20
1.7774583333333
 42
0.0
  0
VERTEX
  8
0
 10
0.0
 20
1.7774583333333
 42
0.0
  0
VERTEX
  8
0
 10
0.01896875
 20
1.5173932498611
 42
0.0
  0
VERTEX
  8
0
 10
0.07408
 20
1.2691176655556
 42
0.0
  0
VERTEX
  8
0
 10
0.16264125
 20
1.0352860795833
 42
0.0
  0
VERTEX
  8
0
 10
0.28196
 20
0.8185529911111
 42
0.0
  0
VERTEX
  8
0
 10
0.42934375
 20
0.6215728993056
 42
0.0
  0
VERTEX
  8
0
 10
0.6021
 20
0.4470003033333
 42
0.0
  0
VERTEX
  8
0
 10
0.79753625
 20
0.2974897023611
 42
0.0
  0
VERTEX
  8
0
 10
1.01296
 20
0.1756955955556
 42
0.0
  0
VERTEX
  8
0
 10
1.24567875
 20
0.0842724820833
 42
0.0
  0
VERTEX
  8
0
 10
1.493
 20
0.0258748611111
 42
0.0
  0
VERTEX
  8
0
 10
1.493
 20
0.0258748611111
 42
0.0
  0
VERTEX
  8
0
 10
1.5203287361111
 20
0.02151170415
 42
0.0
  0
VERTEX
  8
0
 10
1.5477598888889
 20
0.0174598080889
 42
0.0
  0
VERTEX
  8
0
 10
1.575298375
 20
0.0137504226611
 42
0.0
  0
VERTEX
  8
0
 10
1.6029491111111
 20
0.0104147976
 42
0.0
  0
VERTEX
  8
0
 10
1.6307170138889
 20
0.0074841826389
 42
0.0
  0
VERTEX
  8
0
 10
1.658607
 20
0.0049898275111
 42
0.0
  0
VERTEX
  8
0
 10
1.6866239861111
 20
0.00296298195
 42
0.0
  0
VERTEX
  8
0
 10
1.7147728888889
 20
0.0014348956889
 42
0.0
  0
VERTEX
  8
0
 10
1.743058625
 20
0.0004368184611
 42
0.0
  0
VERTEX
  8
0
 10
1.7714861111111
 20
0.0
 42
0.0
  0
VERTEX
  8
0
 10
1.7714861111111
 20
0.0
 42
0.0
  0
VERTEX
  8
0
 10
1.7714861111111
 20
0.0012498638889
 42
0.0
  0
VERTEX
  8
0
 10
1.7714861111111
 20
0.0012498638889
 42
0.0
  0
VERTEX
  8
0
 10
1.7721152222222
 20
0.0012405309444
 42
0.0
  0
VERTEX
  8
0
 10
1.7727373333333
 20
0.0012151986667
 42
0.0
  0
VERTEX
  8
0
 10
1.7733546111111
 20
0.0011778668889
 42
0.0
  0
VERTEX
  8
0
 10
1.7739692222222
 20
0.0011325354444
 42
0.0
  0
VERTEX
  8
0
 10
1.7745833333333
 20
0.0010832041667
 42
0.0
  0
VERTEX
  8
0
 10
1.7751991111111
 20
0.0010338728889
 42
0.0
  0
VERTEX
  8
0
 10
1.7758187222222
 20
0.0009885414444
 42
0.0
  0
VERTEX
  8
0
 10
1.7764443333333
 20
0.0009512096667
 42
0.0
  0
VERTEX
  8
0
 10
1.7770781111111
 20
0.0009258773889
 42
0.0
  0
VERTEX
  8
0
 10
1.7777222222222
 20
0.0009165444444
 42
0.0
  0
VERTEX
  8
0
 10
1.7777222222222
 20
0.0009165444444
 42
0.0
  0
VERTEX
  8
0
 10
2.0659520555556
 20
0.0241809645333
 42
0.0
  0
VERTEX
  8
0
 10
2.3394275555556
 20
0.0915302238222
 42
0.0
  0
VERTEX
  8
0
 10
2.5944777222222
 20
0.1992983208444
 42
0.0
  0
VERTEX
  8
0
 10
2.8274315555556
 20
0.3438192541333
 42
0.0
  0
VERTEX
  8
0
 10
3.0346180555556
 20
0.5214270222222
 42
0.0
  0
VERTEX
  8
0
 10
3.2123662222222
 20
0.7284556236444
 42
0.0
  0
VERTEX
  8
0
 10
3.3570050555556
 20
0.9612390569333
 42
0.0
  0
VERTEX
  8
0
 10
3.4648635555556
 20
1.2161113206222
 42
0.0
  0
VERTEX
  8
0
 10
3.5322707222222
 20
1.4894064132444
 42
0.0
  0
VERTEX
  8
0
 10
3.5555555555556
 20
1.7774583333333
 42
0.0
  0
VERTEX
  8
0
 10
3.5555555555556
 20
1.7774583333333
 42
0.0
  0
VERTEX
  8
0
 10
3.5322707222222
 20
2.0655289305556
 42
0.0
  0
VERTEX
  8
0
 10
3.4648635555556
 20
2.3388531111111
 42
0.0
  0
VERTEX
  8
0
 10
3.3570050555556
 20
2.5937619583333
 42
0.0
  0
VERTEX
  8
0
 10
3.2123662222222
 20
2.8265865555556
 42
0.0
  0
VERTEX
  8
0
 10
3.0346180555556
 20
3.0336579861111
 42
0.0
  0
VERTEX
  8
0
 10
2.8274315555556
 20
3.2113073333333
 42
0.0
  0
VERTEX
  8
0
 10
2.5944777222222
 20
3.3558656805556
 42
0.0
  0
VERTEX
  8
0
 10
2.3394275555556
 20
3.4636641111111
 42
0.0
  0
VERTEX
  8
0
 10
2.0659520555556
 20
3.5310337083333
 42
0.0
  0
VERTEX
  8
0
 10
1.7777222222222
 20
3.5543055555556
 42
0.0
  0
VERTEX
  8
0
 10
1.7777222222222
 20
3.5543055555556
 42
0.0
  0
VERTEX
  8
0
 10
1.7770781111111
 20
3.5542966111111
 42
0.0
  0
VERTEX
  8
0
 10
1.7764443333333
 20
3.5542723333333
 42
0.0
  0
VERTEX
  8
0
 10
1.7758187222222
 20
3.5542365555556
 42
0.0
  0
VERTEX
  8
0
 10
1.7751991111111
 20
3.5541931111111
 42
0.0
  0
VERTEX
  8
0
 10
1.7745833333333
 20
3.5541458333333
 42
0.0
  0
VERTEX
  8
0
 10
1.7739692222222
 20
3.5540985555556
 42
0.0
  0
VERTEX
  8
0
 10
1.7733546111111
 20
3.5540551111111
 42
0.0
  0
VERTEX
  8
0
 10
1.7727373333333
 20
3.5540193333333
 42
0.0
  0
VERTEX
  8
0
 10
1.7721152222222
 20
3.5539950555556
 42
0.0
  0
VERTEX
  8
0
 10
1.7714861111111
 20
3.5539861111111
 42
0.0
  0
SEQEND
  0
POLYLINE
  8
0
 66
     1
 10
0.0
 20
0.0
 30
0.0
 70
     1
  0
VERTEX
  8
0
 10
1.7777222222222
 20
3.4972361111111
 42
0.0
  0
VERTEX
  8
0
 10
2.0575240833333
 20
3.4746914861111
 42
0.0
  0
VERTEX
  8
0
 10
2.3230037777778
 20
3.4094257777778
 42
0.0
  0
VERTEX
  8
0
 10
2.5705974722222
 20
3.3049912361111
 42
0.0
  0
VERTEX
  8
0
 10
2.7967413333333
 20
3.1649401111111
 42
0.0
  0
VERTEX
  8
0
 10
2.9978715277778
 20
2.9928246527778
 42
0.0
  0
VERTEX
  8
0
 10
3.1704242222222
 20
2.7921971111111
 42
0.0
  0
VERTEX
  8
0
 10
3.3108355833333
 20
2.5666097361111
 42
0.0
  0
VERTEX
  8
0
 10
3.4155417777778
 20
2.3196147777778
 42
0.0
  0
VERTEX
  8
0
 10
3.4809789722222
 20
2.0547644861111
 42
0.0
  0
VERTEX
  8
0
 10
3.5035833333333
 20
1.7756111111111
 42
0.0
  0
VERTEX
  8
0
 10
3.5035833333333
 20
1.7756111111111
 42
0.0
  0
VERTEX
  8
0
 10
3.4809789722222
 20
1.4964392977778
 42
0.0
  0
VERTEX
  8
0
 10
3.4155417777778
 20
1.2315749711111
 42
0.0
  0
VERTEX
  8
0
 10
3.3108355833333
 20
0.9845698011111
 42
0.0
  0
VERTEX
  8
0
 10
3.1704242222222
 20
0.7589754577778
 42
0.0
  0
VERTEX
  8
0
 10
2.9978715277778
 20
0.5583436111111
 42
0.0
  0
VERTEX
  8
0
 10
2.7967413333333
 20
0.3862259311111
 42
0.0
  0
VERTEX
  8
0
 10
2.5705974722222
 20
0.2461740877778
 42
0.0
  0
VERTEX
  8
0
 10
2.3230037777778
 20
0.1417397511111
 42
0.0
  0
VERTEX
  8
0
 10
2.0575240833333
 20
0.0764745911111
 42
0.0
  0
VERTEX
  8
0
 10
1.7777222222222
 20
0.0539302777778
 42
0.0
  0
VERTEX
  8
0
 10
1.7777222222222
 20
0.0539302777778
 42
0.0
  0
VERTEX
  8
0
 10
1.7770781111111
 20
0.0539392222222
 42
0.0
  0
VERTEX
  8
0
 10
1.7764443333333
 20
0.0539635
 42
0.0
  0
VERTEX
  8
0
 10
1.7758187222222
 20
0.0539992777778
 42
0.0
  0
VERTEX
  8
0
 10
1.7751991111111
 20
0.0540427222222
 42
0.0
  0
VERTEX
  8
0
 10
1.7745833333333
 20
0.05409
 42
0.0
  0
VERTEX
  8
0
 10
1.7739692222222
 20
0.0541372777778
 42
0.0
  0
VERTEX
  8
0
 10
1.7733546111111
 20
0.0541807222222
 42
0.0
  0
VERTEX
  8
0
 10
1.7727373333333
 20
0.0542165
 42
0.0
  0
VERTEX
  8
0
 10
1.7721152222222
 20
0.0542407777778
 42
0.0
  0
VERTEX
  8
0
 10
1.7714861111111
 20
0.0542497222222
 42
0.0
  0
VERTEX
  8
0
 10
1.7714861111111
 20
0.0542497222222
 42
0.0
  0
VERTEX
  8
0
 10
1.7714861111111
 20
0.5292916666667
 42
0.0
  0
VERTEX
  8
0
 10
1.7714861111111
 20
0.5292916666667
 42
0.0
  0
VERTEX
  8
0
 10
1.4212777777778
 20
0.5292916666667
 42
0.0
  0
VERTEX
  8
0
 10
1.4212777777778
 20
0.5292916666667
 42
0.0
  0
VERTEX
  8
0
 10
1.4212777777778
 20
2.1345972222222
 42
0.0
  0
VERTEX
  8
0
 10
1.4212777777778
 20
2.1345972222222
 42
0.0
  0
VERTEX
  8
0
 10
1.7714861111111
 20
2.1345972222222
 42
0.0
  0
VERTEX
  8
0
 10
1.7714861111111
 20
2.1345972222222
 42
0.0
  0
VERTEX
  8
0
 10
1.7714861111111
 20
2.3152083333333
 42
0.0
  0
VERTEX
  8
0
 10
1.7714861111111
 20
2.3152083333333
 42
0.0
  0
VERTEX
  8
0
 10
1.7149878333333
 20
2.3208234305556
 42
0.0
  0
VERTEX
  8
0
 10
1.6614315555556
 20
2.3349207777778
 42
0.0
  0
VERTEX
  8
0
 10
1.6115251111111
 20
2.3568034583333
 42
0.0
  0
VERTEX
  8
0
 10
1.5659763333333
 20
2.3857745555556
 42
0.0
  0
VERTEX
  8
0
 10
1.5254930555556
 20
2.4211371527778
 42
0.0
  0
VERTEX
  8
0
 10
1.4907831111111
 20
2.4621943333333
 42
0.0
  0
VERTEX
  8
0
 10
1.4625543333333
 20
2.5082491805556
 42
0.0
  0
VERTEX
  8
0
 10
1.4415145555556
 20
2.5586047777778
 42
0.0
  0
VERTEX
  8
0
 10
1.4283716111111
 20
2.6125642083333
 42
0.0
  0
VERTEX
  8
0
 10
1.4238333333333
 20
2.6694305555556
 42
0.0
  0
VERTEX
  8
0
 10
1.4238333333333
 20
2.6694305555556
 42
0.0
  0
VERTEX
  8
0
 10
1.4283716111111
 20
2.7262991527778
 42
0.0
  0
VERTEX
  8
0
 10
1.4415145555556
 20
2.780286
 42
0.0
  0
VERTEX
  8
0
 10
1.4625543333333
 20
2.8306876805556
 42
0.0
  0
VERTEX
  8
0
 10
1.4907831111111
 20
2.8768007777778
 42
0.0
  0
VERTEX
  8
0
 10
1.5254930555556
 20
2.917921875
 42
0.0
  0
VERTEX
  8
0
 10
1.5659763333333
 20
2.9533475555556
 42
0.0
  0
VERTEX
  8
0
 10
1.6115251111111
 20
2.9823744027778
 42
0.0
  0
VERTEX
  8
0
 10
1.6614315555556
 20
3.004299
 42
0.0
  0
VERTEX
  8
0
 10
1.7149878333333
 20
3.0184179305556
 42
0.0
  0
VERTEX
  8
0
 10
1.7714861111111
 20
3.0240277777778
 42
0.0
  0
VERTEX
  8
0
 10
1.7714861111111
 20
3.0240277777778
 42
0.0
  0
VERTEX
  8
0
 10
1.7714861111111
 20
3.4969027777778
 42
0.0
  0
VERTEX
  8
0
 10
1.7714861111111
 20
3.4969027777778
 42
0.0
  0
VERTEX
  8
0
 10
1.7721152222222
 20
3.4969121111111
 42
0.0
  0
VERTEX
  8
0
 10
1.7727373333333
 20
3.4969374444444
 42
0.0
  0
VERTEX
  8
0
 10
1.7733546111111
 20
3.4969747777778
 42
0.0
  0
VERTEX
  8
0
 10
1.7739692222222
 20
3.4970201111111
 42
0.0
  0
VERTEX
  8
0
 10
1.7745833333333
 20
3.4970694444445
 42
0.0
  0
VERTEX
  8
0
 10
1.7751991111111
 20
3.4971187777778
 42
0.0
  0
VERTEX
  8
0
 10
1.7758187222222
 20
3.4971641111111
 42
0.0
  0
VERTEX
  8
0
 10
1.7764443333333
 20
3.4972014444444
 42
0.0
  0
VERTEX
  8
0
 10
1.7770781111111
 20
3.4972267777778
 42
0.0
  0
VERTEX
  8
0
 10
1.7777222222222
 20
3.4972361111111
 42
0.0
  0
SEQEND
  0
POLYLINE
  8
0
 66
     1
 10
0.0
 20
0.0
 30
0.0
 70
     1
  0
VERTEX
  8
0
 10
1.7714861111111
 20
3.0240277777778
 42
0.0
  0
VERTEX
  8
0
 10
1.7714861111111
 20
2.9743333333333
 42
0.0
  0
VERTEX
  8
0
 10
1.7714861111111
 20
2.9743333333333
 42
0.0
  0
VERTEX
  8
0
 10
1.7723559444444
 20
2.9743879444444
 42
0.0
  0
VERTEX
  8
0
 10
1.7732097777778
 20
2.9744785555556
 42
0.0
  0
VERTEX
  8
0
 10
1.7740516111111
 20
2.9745953333333
 42
0.0
  0
VERTEX
  8
0
 10
1.7748854444444
 20
2.9747284444444
 42
0.0
  0
VERTEX
  8
0
 10
1.7757152777778
 20
2.9748680555556
 42
0.0
  0
VERTEX
  8
0
 10
1.7765451111111
 20
2.9750043333333
 42
0.0
  0
VERTEX
  8
0
 10
1.7773789444444
 20
2.9751274444444
 42
0.0
  0
VERTEX
  8
0
 10
1.7782207777778
 20
2.9752275555556
 42
0.0
  0
VERTEX
  8
0
 10
1.7790746111111
 20
2.9752948333333
 42
0.0
  0
VERTEX
  8
0
 10
1.7799444444444
 20
2.9753194444444
 42
0.0
  0
VERTEX
  8
0
 10
1.7799444444444
 20
2.9753194444444
 42
0.0
  0
VERTEX
  8
0
 10
1.8288053194444
 20
2.971349625
 42
0.0
  0
VERTEX
  8
0
 10
1.8751647777778
 20
2.9598575555556
 42
0.0
  0
VERTEX
  8
0
 10
1.9184005694444
 20
2.9414693194444
 42
0.0
  0
VERTEX
  8
0
 10
1.9578904444444
 20
2.916811
 42
0.0
  0
VERTEX
  8
0
 10
1.9930121527778
 20
2.8865086805556
 42
0.0
  0
VERTEX
  8
0
 10
2.0231434444444
 20
2.8511884444444
 42
0.0
  0
VERTEX
  8
0
 10
2.0476620694444
 20
2.811476375
 42
0.0
  0
VERTEX
  8
0
 10
2.0659457777778
 20
2.7679985555556
 42
0.0
  0
VERTEX
  8
0
 10
2.0773723194444
 20
2.7213810694444
 42
0.0
  0
VERTEX
  8
0
 10
2.0813194444444
 20
2.67225
 42
0.0
  0
VERTEX
  8
0
 10
2.0813194444444
 20
2.67225
 42
0.0
  0
VERTEX
  8
0
 10
2.0773723194444
 20
2.6231011527778
 42
0.0
  0
VERTEX
  8
0
 10
2.0659457777778
 20
2.5764642222222
 42
0.0
  0
VERTEX
  8
0
 10
2.0476620694444
 20
2.532966125
 42
0.0
  0
VERTEX
  8
0
 10
2.0231434444444
 20
2.4932337777778
 42
0.0
  0
VERTEX
  8
0
 10
1.9930121527778
 20
2.4578940972222
 42
0.0
  0
VERTEX
  8
0
 10
1.9578904444444
 20
2.427574
 42
0.0
  0
VERTEX
  8
0
 10
1.9184005694444
 20
2.4029004027778
 42
0.0
  0
VERTEX
  8
0
 10
1.8751647777778
 20
2.3845002222222
 42
0.0
  0
VERTEX
  8
0
 10
1.8288053194444
 20
2.373000375
 42
0.0
  0
VERTEX
  8
0
 10
1.7799444444444
 20
2.3690277777778
 42
0.0
  0
VERTEX
  8
0
 10
1.7799444444444
 20
2.3690277777778
 42
0.0
  0
VERTEX
  8
0
 10
1.7790746111111
 20
2.3690508333333
 42
0.0
  0
VERTEX
  8
0
 10
1.7782207777778
 20
2.3691138888889
 42
0.0
  0
VERTEX
  8
0
 10
1.7773789444444
 20
2.3692077777778
 42
0.0
  0
VERTEX
  8
0
 10
1.7765451111111
 20
2.3693233333333
 42
0.0
  0
VERTEX
  8
0
 10
1.7757152777778
 20
2.3694513888889
 42
0.0
  0
VERTEX
  8
0
 10
1.7748854444444
 20
2.3695827777778
 42
0.0
  0
VERTEX
  8
0
 10
1.7740516111111
 20
2.3697083333333
 42
0.0
  0
VERTEX
  8
0
 10
1.7732097777778
 20
2.3698188888889
 42
0.0
  0
VERTEX
  8
0
 10
1.7723559444444
 20
2.3699052777778
 42
0.0
  0
VERTEX
  8
0
 10
1.7714861111111
 20
2.3699583333333
 42
0.0
  0
VERTEX
  8
0
 10
1.7714861111111
 20
2.3699583333333
 42
0.0
  0
VERTEX
  8
0
 10
1.7714861111111
 20
2.3152083333333
 42
0.0
  0
VERTEX
  8
0
 10
1.7714861111111
 20
2.3152083333333
 42
0.0
  0
VERTEX
  8
0
 10
1.7721949444444
 20
2.3151916111111
 42
0.0
  0
VERTEX
  8
0
 10
1.7728901111111
 20
2.3151462222222
 42
0.0
  0
VERTEX
  8
0
 10
1.7735746111111
 20
2.3150793333333
 42
0.0
  0
VERTEX
  8
0
 10
1.7742514444444
 20
2.3149981111111
 42
0.0
  0
VERTEX
  8
0
 10
1.7749236111111
 20
2.3149097222222
 42
0.0
  0
VERTEX
  8
0
 10
1.7755941111111
 20
2.3148213333333
 42
0.0
  0
VERTEX
  8
0
 10
1.7762659444444
 20
2.3147401111111
 42
0.0
  0
VERTEX
  8
0
 10
1.7769421111111
 20
2.3146732222222
 42
0.0
  0
VERTEX
  8
0
 10
1.7776256111111
 20
2.3146278333333
 42
0.0
  0
VERTEX
  8
0
 10
1.7783194444444
 20
2.3146111111111
 42
0.0
  0
VERTEX
  8
0
 10
1.7783194444444
 20
2.3146111111111
 42
0.0
  0
VERTEX
  8
0
 10
1.8358034722222
 20
2.3192536805556
 42
0.0
  0
VERTEX
  8
0
 10
1.89035
 20
2.332695
 42
0.0
  0
VERTEX
  8
0
 10
1.9412256944444
 20
2.3542054861111
 42
0.0
  0
VERTEX
  8
0
 10
1.9876972222222
 20
2.3830555555556
 42
0.0
  0
VERTEX
  8
0
 10
2.02903125
 20
2.418515625
 42
0.0
  0
VERTEX
  8
0
 10
2.0644944444444
 20
2.4598561111111
 42
0.0
  0
VERTEX
  8
0
 10
2.0933534722222
 20
2.5063474305556
 42
0.0
  0
VERTEX
  8
0
 10
2.114875
 20
2.55726
 42
0.0
  0
VERTEX
  8
0
 10
2.1283256944444
 20
2.6118642361111
 42
0.0
  0
VERTEX
  8
0
 10
2.1329722222222
 20
2.6694305555556
 42
0.0
  0
VERTEX
  8
0
 10
2.1329722222222
 20
2.6694305555556
 42
0.0
  0
VERTEX
  8
0
 10
2.1283256944444
 20
2.7269988055556
 42
0.0
  0
VERTEX
  8
0
 10
2.114875
 20
2.7816298888889
 42
0.0
  0
VERTEX
  8
0
 10
2.0933534722222
 20
2.8325883055556
 42
0.0
  0
VERTEX
  8
0
 10
2.0644944444444
 20
2.8791385555556
 42
0.0
  0
VERTEX
  8
0
 10
2.02903125
 20
2.9205451388889
 42
0.0
  0
VERTEX
  8
0
 10
1.9876972222222
 20
2.9560725555556
 42
0.0
  0
VERTEX
  8
0
 10
1.9412256944444
 20
2.9849853055556
 42
0.0
  0
VERTEX
  8
0
 10
1.89035
 20
3.0065478888889
 42
0.0
  0
VERTEX
  8
0
 10
1.8358034722222
 20
3.0200248055556
 42
0.0
  0
VERTEX
  8
0
 10
1.7783194444444
 20
3.0246805555556
 42
0.0
  0
VERTEX
  8
0
 10
1.7783194444444
 20
3.0246805555556
 42
0.0
  0
VERTEX
  8
0
 10
1.7776256111111
 20
3.0246637777778
 42
0.0
  0
VERTEX
  8
0
 10
1.7769421111111
 20
3.024618
 42
0.0
  0
VERTEX
  8
0
 10
1.7762659444444
 20
3.0245500555556
 42
0.0
  0
VERTEX
  8
0
 10
1.7755941111111
 20
3.0244667777778
 42
0.0
  0
VERTEX
  8
0
 10
1.7749236111111
 20
3.024375
 42
0.0
  0
VERTEX
  8
0
 10
1.7742514444444
 20
3.0242815555556
 42
0.0
  0
VERTEX
  8
0
 10
1.7735746111111
 20
3.0241932777778
 42
0.0
  0
VERTEX
  8
0
 10
1.7728901111111
 20
3.024117
 42
0.0
  0
VERTEX
  8
0
 10
1.7721949444444
 20
3.0240595555556
 42
0.0
  0
VERTEX
  8
0
 10
1.7714861111111
 20
3.0240277777778
 42
0.0
  0
SEQEND
  0
POLYLINE
  8
0
 66
     1
 10
0.0
 20
0.0
 30
0.0
 70
     1
  0
VERTEX
  8
0
 10
1.7714861111111
 20
2.3699583333333
 42
0.0
  0
VERTEX
  8
0
 10
1.7714861111111
 20
2.9743333333333
 42
0.0
  0
VERTEX
  8
0
 10
1.7714861111111
 20
2.9743333333333
 42
0.0
  0
VERTEX
  8
0
 10
1.7238358888889
 20
2.9691915
 42
0.0
  0
VERTEX
  8
0
 10
1.678681
 20
2.956922
 42
0.0
  0
VERTEX
  8
0
 10
1.6366151111111
 20
2.9381088333333
 42
0.0
  0
VERTEX
  8
0
 10
1.5982318888889
 20
2.913336
 42
0.0
  0
VERTEX
  8
0
 10
1.564125
 20
2.8831875
 42
0.0
  0
VERTEX
  8
0
 10
1.5348881111111
 20
2.8482473333333
 42
0.0
  0
VERTEX
  8
0
 10
1.5111148888889
 20
2.8090995
 42
0.0
  0
VERTEX
  8
0
 10
1.493399
 20
2.766328
 42
0.0
  0
VERTEX
  8
0
 10
1.4823341111111
 20
2.7205168333333
 42
0.0
  0
VERTEX
  8
0
 10
1.4785138888889
 20
2.67225
 42
0.0
  0
VERTEX
  8
0
 10
1.4785138888889
 20
2.67225
 42
0.0
  0
VERTEX
  8
0
 10
1.4823341111111
 20
2.6239638333333
 42
0.0
  0
VERTEX
  8
0
 10
1.493399
 20
2.578129
 42
0.0
  0
VERTEX
  8
0
 10
1.5111148888889
 20
2.535331
 42
0.0
  0
VERTEX
  8
0
 10
1.5348881111111
 20
2.4961553333333
 42
0.0
  0
VERTEX
  8
0
 10
1.564125
 20
2.4611875
 42
0.0
  0
VERTEX
  8
0
 10
1.5982318888889
 20
2.431013
 42
0.0
  0
VERTEX
  8
0
 10
1.6366151111111
 20
2.4062173333333
 42
0.0
  0
VERTEX
  8
0
 10
1.678681
 20
2.387386
 42
0.0
  0
VERTEX
  8
0
 10
1.7238358888889
 20
2.3751045
 42
0.0
  0
VERTEX
  8
0
 10
1.7714861111111
 20
2.3699583333333
 42
0.0
  0
SEQEND
  0
POLYLINE
  8
0
 66
     1
 10
0.0
 20
0.0
 30
0.0
 70
     1
  0
VERTEX
  8
0
 10
1.7714861111111
 20
2.1345972222222
 42
0.0
  0
VERTEX
  8
0
 10
1.7714861111111
 20
2.0774166666667
 42
0.0
  0
VERTEX
  8
0
 10
1.7714861111111
 20
2.0774166666667
 42
0.0
  0
VERTEX
  8
0
 10
2.0703611111111
 20
2.0774166666667
 42
0.0
  0
VERTEX
  8
0
 10
2.0703611111111
 20
2.0774166666667
 42
0.0
  0
VERTEX
  8
0
 10
2.0703611111111
 20
0.5865277777778
 42
0.0
  0
VERTEX
  8
0
 10
2.0703611111111
 20
0.5865277777778
 42
0.0
  0
VERTEX
  8
0
 10
1.7714861111111
 20
0.5865277777778
 42
0.0
  0
VERTEX
  8
0
 10
1.7714861111111
 20
0.5865277777778
 42
0.0
  0
VERTEX
  8
0
 10
1.7714861111111
 20
0.5292916666667
 42
0.0
  0
VERTEX
  8
0
 10
1.7714861111111
 20
0.5292916666667
 42
0.0
  0
VERTEX
  8
0
 10
2.1350416666667
 20
0.5292916666667
 42
0.0
  0
VERTEX
  8
0
 10
2.1350416666667
 20
0.5292916666667
 42
0.0
  0
VERTEX
  8
0
 10
2.1350416666667
 20
2.1345972222222
 42
0.0
  0
SEQEND
  0
POLYLINE
  8
0
 66
     1
 10
0.0
 20
0.0
 30
0.0
 70
     1
  0
VERTEX
  8
0
 10
1.7714861111111
 20
0.5865277777778
 42
0.0
  0
VERTEX
  8
0
 10
1.7714861111111
 20
2.0774166666667
 42
0.0
  0
VERTEX
  8
0
 10
1.7714861111111
 20
2.0774166666667
 42
0.0
  0
VERTEX
  8
0
 10
1.4864861111111
 20
2.0774166666667
 42
0.0
  0
VERTEX
  8
0
 10
1.4864861111111
 20
2.0774166666667
 42
0.0
  0
VERTEX
  8
0
 10
1.4864861111111
 20
0.5865277777778
 42
0.0
  0
VERTEX
  8
0
 10
1.7714861111111
 20
0.5865277777778
 42
0.0
  0
SEQEND
  0
ENDSEC
  0
EOF
