<?xml version="1.0" encoding="UTF-8" standalone="no"?>
<!-- Created with Inkscape (http://www.inkscape.org/) -->

<svg
   xmlns:dc="http://purl.org/dc/elements/1.1/"
   xmlns:cc="http://creativecommons.org/ns#"
   xmlns:rdf="http://www.w3.org/1999/02/22-rdf-syntax-ns#"
   xmlns:svg="http://www.w3.org/2000/svg"
   xmlns="http://www.w3.org/2000/svg"
   xmlns:sodipodi="http://sodipodi.sourceforge.net/DTD/sodipodi-0.dtd"
   xmlns:inkscape="http://www.inkscape.org/namespaces/inkscape"
   width="744.09448819"
   height="1052.3622047"
   id="svg4365"
   version="1.1"
   inkscape:version="0.48.0 r9654"
   sodipodi:docname="anfahrt.svg">
  <defs
     id="defs4367">
    <inkscape:perspective
       id="perspective9"
       inkscape:persp3d-origin="371.875 : 350.83333 : 1"
       inkscape:vp_z="743.75 : 526.25 : 1"
       inkscape:vp_y="0 : 1000 : 0"
       inkscape:vp_x="0 : 526.25 : 1"
       sodipodi:type="inkscape:persp3d" />
  </defs>
  <sodipodi:namedview
     id="base"
     pagecolor="#ffffff"
     bordercolor="#666666"
     borderopacity="1.0"
     inkscape:pageopacity="0.0"
     inkscape:pageshadow="2"
     inkscape:zoom="1.4"
     inkscape:cx="301.3509"
     inkscape:cy="662.01402"
     inkscape:document-units="px"
     inkscape:current-layer="layer1"
     showgrid="false"
     inkscape:window-width="1680"
     inkscape:window-height="1010"
     inkscape:window-x="0"
     inkscape:window-y="0"
     inkscape:window-maximized="0" />
  <metadata
     id="metadata4370">
    <rdf:RDF>
      <cc:Work
         rdf:about="">
        <dc:format>image/svg+xml</dc:format>
        <dc:type
           rdf:resource="http://purl.org/dc/dcmitype/StillImage" />
        <dc:title></dc:title>
      </cc:Work>
    </rdf:RDF>
  </metadata>
  <g
     inkscape:label="Layer 1"
     inkscape:groupmode="layer"
     id="layer1">
    <g
       id="g5346">
      <path
         inkscape:connector-curvature="0"
         id="path4438"
         d="M 75.761441,295.75793 260.11428,330.10311 229.8097,246.76553 z"
         style="fill:none;stroke:#000000;stroke-width:2.5;stroke-linecap:butt;stroke-linejoin:miter;stroke-opacity:1;stroke-miterlimit:4;stroke-dasharray:none" />
      <path
         inkscape:connector-curvature="0"
         id="path4440"
         d="m 200.51528,190.19698 21.71828,37.88073 -161.119331,55.05331"
         style="fill:none;stroke:#000000;stroke-width:2.5;stroke-linecap:butt;stroke-linejoin:miter;stroke-opacity:1;stroke-miterlimit:4;stroke-dasharray:none" />
      <path
         inkscape:connector-curvature="0"
         id="path4442"
         d="m 60.104076,306.36453 207.081274,38.38579 8.5863,11.11168 32.32488,6.56599 -7.57615,91.41881 0,0"
         style="fill:none;stroke:#000000;stroke-width:2.5;stroke-linecap:butt;stroke-linejoin:miter;stroke-opacity:1;stroke-miterlimit:4;stroke-dasharray:none" />
      <path
         inkscape:connector-curvature="0"
         id="path4444"
         d="m 227.28432,186.66145 57.5787,148.9975 183.84776,12.62691 97.9848,-63.13454 0,0"
         style="fill:none;stroke:#000000;stroke-width:2.5;stroke-linecap:butt;stroke-linejoin:miter;stroke-opacity:1;stroke-miterlimit:4;stroke-dasharray:none" />
      <path
         inkscape:connector-curvature="0"
         id="path4446"
         d="m 567.70573,314.95082 -54.54824,37.88072 43.43656,57.07362"
         style="fill:none;stroke:#000000;stroke-width:2.5;stroke-linecap:butt;stroke-linejoin:miter;stroke-opacity:1;stroke-miterlimit:4;stroke-dasharray:none" />
      <path
         inkscape:connector-curvature="0"
         id="path4448"
         d="m 537.40115,416.97623 -41.92133,-52.52793 -161.6244,1.01015 -7.57615,78.28682 0,0"
         style="fill:none;stroke:#000000;stroke-width:2.5;stroke-linecap:butt;stroke-linejoin:miter;stroke-opacity:1;stroke-miterlimit:4;stroke-dasharray:none" />
      <text
         transform="matrix(0.4446705,0.89569423,-0.89569423,0.4446705,0,0)"
         sodipodi:linespacing="125%"
         id="text4450"
         y="-102.63077"
         x="307.43521"
         style="font-size:11.25px;font-style:normal;font-variant:normal;font-weight:bold;font-stretch:normal;text-align:justify;line-height:125%;letter-spacing:0px;word-spacing:0px;text-anchor:start;fill:#000000;fill-opacity:1;stroke:none;font-family:Verdana;-inkscape-font-specification:Verdana Bold"
         xml:space="preserve"><tspan
           y="-102.63077"
           x="307.43521"
           id="tspan4452"
           sodipodi:role="line">Westring</tspan></text>
      <text
         transform="matrix(0.95632318,-0.29231142,0.29231142,0.95632318,0,0)"
         sodipodi:linespacing="125%"
         id="text4454"
         y="300.51001"
         x="19.977182"
         style="font-size:11.25px;font-style:normal;font-variant:normal;font-weight:bold;font-stretch:normal;text-align:justify;line-height:125%;letter-spacing:0px;word-spacing:0px;text-anchor:start;fill:#000000;fill-opacity:1;stroke:none;font-family:Verdana;-inkscape-font-specification:Verdana Bold"
         xml:space="preserve"><tspan
           y="300.51001"
           x="19.977182"
           id="tspan4456"
           sodipodi:role="line">Alleestrasse</tspan></text>
      <text
         transform="matrix(0.97670425,0.21458988,-0.21458988,0.97670425,0,0)"
         sodipodi:linespacing="125%"
         id="text4458"
         y="280.28915"
         x="173.79204"
         style="font-size:11.25px;font-style:normal;font-variant:normal;font-weight:bold;font-stretch:normal;text-align:justify;line-height:125%;letter-spacing:0px;word-spacing:0px;text-anchor:start;fill:#000000;fill-opacity:1;stroke:none;font-family:Verdana;-inkscape-font-specification:Verdana Bold"
         xml:space="preserve"><tspan
           y="280.28915"
           x="173.79204"
           id="tspan4460"
           sodipodi:role="line">Rottstrasse</tspan></text>
      <text
         sodipodi:linespacing="125%"
         id="text4462"
         y="357.88229"
         x="337.39096"
         style="font-size:11.25px;font-style:normal;font-variant:normal;font-weight:normal;font-stretch:normal;text-align:justify;line-height:125%;letter-spacing:0px;word-spacing:0px;text-anchor:start;fill:#000000;fill-opacity:1;stroke:none;font-family:Verdana;-inkscape-font-specification:Verdana"
         xml:space="preserve"><tspan
           style="font-weight:bold;-inkscape-font-specification:Verdana Bold"
           y="357.88229"
           x="337.39096"
           id="tspan4464"
           sodipodi:role="line">Südring</tspan></text>
      <text
         transform="matrix(0.15706158,-0.98758881,0.98758881,0.15706158,0,0)"
         sodipodi:linespacing="125%"
         id="text4466"
         y="381.25516"
         x="-381.98672"
         style="font-size:11.25px;font-style:normal;font-variant:normal;font-weight:bold;font-stretch:normal;text-align:justify;line-height:125%;letter-spacing:0px;word-spacing:0px;text-anchor:start;fill:#000000;fill-opacity:1;stroke:none;font-family:Verdana;-inkscape-font-specification:Verdana Bold"
         xml:space="preserve"><tspan
           y="381.25516"
           x="-381.98672"
           id="tspan4468"
           sodipodi:role="line">Viktoriastr.</tspan></text>
      <text
         transform="matrix(0.84898593,-0.52841545,0.52841545,0.84898593,0,0)"
         sodipodi:linespacing="125%"
         id="text4470"
         y="556.63684"
         x="215.2336"
         style="font-size:11.25px;font-style:normal;font-variant:normal;font-weight:bold;font-stretch:normal;text-align:justify;line-height:125%;letter-spacing:0px;word-spacing:0px;text-anchor:start;fill:#000000;fill-opacity:1;stroke:none;font-family:Verdana;-inkscape-font-specification:Verdana Bold"
         xml:space="preserve"><tspan
           y="556.63684"
           x="215.2336"
           id="tspan4472"
           sodipodi:role="line">Kurt-Schumacher-Pl.</tspan></text>
      <text
         transform="matrix(0.65229014,0.75796937,-0.75796937,0.65229014,0,0)"
         sodipodi:linespacing="125%"
         id="text4474"
         y="-142.15036"
         x="619.3222"
         style="font-size:11.25px;font-style:normal;font-variant:normal;font-weight:bold;font-stretch:normal;text-align:justify;line-height:125%;letter-spacing:0px;word-spacing:0px;text-anchor:start;fill:#000000;fill-opacity:1;stroke:none;font-family:Verdana;-inkscape-font-specification:Verdana Bold"
         xml:space="preserve"><tspan
           y="-142.15036"
           x="619.3222"
           id="tspan4476"
           sodipodi:role="line">Uni.Str.</tspan></text>
      <g
         id="g5307">
        <path
           style="fill:#000000;fill-opacity:1;stroke:#000000;stroke-width:0.98674238px;stroke-linecap:butt;stroke-linejoin:miter;stroke-opacity:1"
           d="M 82.361373,208.63227 94.655694,266.4635 111.62186,209.13734 z"
           id="path4537"
           inkscape:connector-curvature="0" />
        <g
           id="g4533"
           transform="matrix(0.04318464,0,0,0.04318464,81.776868,193.24158)">
          <path
             transform="matrix(2.1911678,0,0,2.1911678,1062.7164,-71.212954)"
             d="m -167,191.5 c 0,87.81328 -71.18672,159 -159,159 -87.81328,0 -159,-71.18672 -159,-159 0,-87.81328 71.18672,-159 159,-159 87.81328,0 159,71.18672 159,159 z"
             sodipodi:ry="159"
             sodipodi:rx="159"
             sodipodi:cy="191.5"
             sodipodi:cx="-326"
             id="path3174"
             style="fill:#ffffff;fill-opacity:1;stroke:none"
             sodipodi:type="arc" />
          <path
             id="path4853"
             d="m 347.20672,11.781507 c -22.8134,0.121696 -45.08943,2.59804 -66.60945,7.094971 -4.18092,0.873692 -8.18843,2.147441 -12.31054,3.17667 C 127.97137,56.401863 22.036621,178.41953 12.564011,326.78391 l 69.258302,0 0,-71.90046 12.76206,0 38.256037,0 0,-40.52203 c -7.31729,-2.26818 -12.70187,-8.84724 -12.70187,-16.92107 0,-9.92381 7.97505,-17.9307 17.87882,-17.9307 9.90406,0 17.96925,8.00689 17.96925,17.9307 0,7.18807 -4.29511,13.2733 -10.38414,16.14929 l 0,41.29381 33.13927,0 c 2.49511,-6.92354 8.9987,-11.93395 16.76504,-11.93395 9.90404,0 17.87896,8.00689 17.87896,17.93055 0,9.92382 -7.97492,17.99005 -17.87896,17.99005 -7.78406,0 -14.28298,-5.04551 -16.76504,-11.99345 l -84.157367,0 0,59.90726 31.935067,0 10.05313,0 2.64874,0 0,95.94632 39.52043,0 c 2.48206,-6.94766 8.98098,-12.02287 16.76504,-12.02287 9.90404,0 17.87896,8.0958 17.87896,18.0196 0,9.92395 -7.97492,17.9307 -17.87896,17.9307 -7.78695,0 -14.28518,-5.04146 -16.76504,-11.99332 l -106.912519,0 c -2.48027,6.95105 -8.91859,11.99332 -16.70485,11.99332 -9.90404,0 -17.93914,-8.00675 -17.93914,-17.9307 0,-9.9238 8.0351,-18.0196 17.93914,-18.0196 7.78324,0 14.22239,5.07602 16.70485,12.02287 l 54.690219,0 0,-83.92345 -31.935067,0 -12.76206,0 -69.830042,0 c -0.09096,3.20788 -0.21077,6.41846 -0.21077,9.64817 0,167.30035 122.556739,305.78226 282.691479,331.65669 17.21804,2.84659 34.73949,4.80213 52.73374,4.89821 l 0,-0.23769 c 0.40217,10e-4 0.77138,0.0595 1.1737,0.0595 185.81024,0 336.62942,-150.68406 336.62942,-336.37669 0,-185.69265 -150.81918,-336.435878 -336.62942,-336.435878 -0.40232,0 -0.77153,0.058 -1.1737,0.05922 l 0,-0.296787 z m 1.1737,11.04343 c 180.37511,0 326.78706,146.021913 326.78706,325.986423 -2.7e-4,179.96423 -146.41195,325.98616 -326.78706,325.98616 -0.40246,2.7e-4 -0.77139,-0.0579 -1.1737,-0.0591 l 0,-89.95 -66.30854,0 0,-303.959 66.30854,0 0,-34.19884 c -36.43657,-0.71704 -65.82693,-30.40308 -65.82693,-67.06159 0,-36.65838 29.39036,-66.43402 65.82693,-67.15064 l 0,-89.534088 c 0.40231,-0.0015 0.77124,-0.05935 1.1737,-0.05935 z m -1.1737,89.593433 0,9.4106 c 0.54755,-0.0156 1.04386,-0.17808 1.59512,-0.17808 31.50458,0 57.06812,25.70965 57.06812,57.38376 0,31.67412 -25.56354,57.41344 -57.06812,57.41344 -0.55126,0 -1.04757,-0.16235 -1.59512,-0.17793 l 0,10.36044 c 0.44628,0.009 0.846,0.11885 1.2942,0.11885 37.05515,0 67.15136,-30.07281 67.15136,-67.18044 0,-37.1075 -30.09621,-67.26949 -67.15136,-67.26949 -0.4482,0 -0.84792,0.11004 -1.2942,0.11885 z m 0,123.85179 0,-114.44119 c -30.74339,0.87762 -55.47275,26.08597 -55.47275,57.20568 0,31.11971 24.7295,56.35706 55.47275,57.23551 z m 0,44.55928 0,10.83532 56.58653,0 0,282.28823 -56.58653,0 0,10.83545 68.83675,0 0,-303.959 -68.83675,0 z m 0,293.12355 0,-282.28823 -53.9679,0 0,282.28823 53.9679,0 z"
             style="fill:#000000;fill-opacity:1;fill-rule:evenodd;stroke:none"
             inkscape:connector-curvature="0" />
        </g>
      </g>
      <text
         sodipodi:linespacing="125%"
         id="text5313"
         y="202.82388"
         x="116.67262"
         style="font-size:11.25px;font-style:normal;font-variant:normal;font-weight:normal;font-stretch:normal;text-align:justify;line-height:125%;letter-spacing:0px;word-spacing:0px;text-anchor:start;fill:#000000;fill-opacity:1;stroke:none;font-family:Verdana;-inkscape-font-specification:Verdana"
         xml:space="preserve"><tspan
           y="202.82388"
           x="116.67262"
           id="tspan5315"
           sodipodi:role="line">Das Labor</tspan><tspan
           id="tspan5317"
           y="216.88638"
           x="116.67262"
           sodipodi:role="line">Alleestrasse 50</tspan><tspan
           id="tspan5319"
           y="230.94888"
           x="116.67262"
           sodipodi:role="line">44793 Bochum</tspan></text>
      <path
         transform="translate(595.71429,34.285714)"
         d="m -37.857143,307.00504 a 7.5,7.5 0 1 1 -15,0 7.5,7.5 0 1 1 15,0 z"
         sodipodi:ry="7.5"
         sodipodi:rx="7.5"
         sodipodi:cy="307.00504"
         sodipodi:cx="-45.357143"
         id="path5321"
         style="fill:#000000;fill-opacity:1;stroke:none"
         sodipodi:type="arc" />
      <text
         sodipodi:linespacing="125%"
         id="text5323"
         y="363.07648"
         x="541.42859"
         style="font-size:11.25px;font-style:normal;font-variant:normal;font-weight:normal;font-stretch:normal;text-align:justify;line-height:125%;letter-spacing:0px;word-spacing:0px;text-anchor:start;fill:#000000;fill-opacity:1;stroke:none;font-family:Verdana;-inkscape-font-specification:Verdana"
         xml:space="preserve"><tspan
           y="363.07648"
           x="541.42859"
           id="tspan5325"
           sodipodi:role="line">Bochum-Hbf</tspan></text>
    </g>
  </g>
</svg>
